<?xml version="1.0" standalone="no"?>
<!DOCTYPE svg PUBLIC "-//W3C//DTD SVG 20010904//EN"
 "http://www.w3.org/TR/2001/REC-SVG-20010904/DTD/svg10.dtd">
<svg version="1.0" xmlns="http://www.w3.org/2000/svg"
 width="1472.000000pt" height="1472.000000pt" viewBox="0 0 1472.000000 1472.000000"
 preserveAspectRatio="xMidYMid meet">

<g transform="translate(0.000000,1472.000000) scale(0.100000,-0.100000)"
fill="#000000" stroke="none">
<path d="M6330 14163 c-158 -30 -439 -190 -690 -393 -105 -86 -297 -279 -407
-411 -148 -178 -384 -530 -487 -729 -140 -270 -280 -599 -341 -800 -99 -328
-129 -516 -128 -793 l1 -149 -56 -26 c-58 -27 -130 -35 -164 -18 -31 14 -20
-12 12 -29 40 -20 96 -19 149 5 50 23 61 20 61 -20 0 -87 71 -327 131 -440 54
-102 166 -240 233 -284 30 -20 70 -57 89 -83 19 -27 53 -65 76 -85 23 -20 41
-45 41 -54 0 -32 50 -218 79 -298 61 -162 176 -318 271 -366 44 -22 140 -50
172 -50 35 0 68 27 68 56 0 26 -14 32 -27 11 -27 -45 -135 -6 -209 76 -46 52
-109 151 -139 222 -22 52 -85 224 -85 233 0 3 26 -19 58 -50 31 -31 82 -72
112 -91 54 -34 282 -137 304 -137 6 0 37 -22 68 -48 31 -26 75 -62 98 -80 55
-45 73 -75 82 -136 11 -77 18 -115 33 -181 8 -33 16 -73 19 -90 22 -126 105
-437 159 -592 17 -52 -6 -279 -39 -384 -15 -46 -29 -90 -30 -97 -4 -22 -84
-176 -102 -197 -48 -55 -103 -95 -131 -95 -35 0 -47 -13 -27 -29 31 -26 125
40 189 130 101 145 173 260 200 318 l29 65 14 -33 c8 -18 14 -37 14 -42 0 -29
77 -167 124 -222 l55 -66 -54 -20 c-139 -52 -358 -192 -436 -279 -152 -170
-282 -451 -389 -842 -111 -402 -193 -742 -205 -845 -10 -82 -52 -213 -85 -261
-48 -71 -135 -238 -164 -316 -27 -71 -72 -237 -82 -303 -3 -22 -7 -42 -9 -45
-2 -3 -6 -34 -9 -70 -20 -220 -26 -326 -26 -493 0 -153 -5 -215 -24 -330 -13
-78 -27 -164 -31 -190 -9 -64 -20 -91 -125 -277 -111 -198 -156 -286 -187
-369 -38 -101 -50 -119 -83 -126 -21 -5 -39 -20 -56 -45 -34 -52 -34 -122 1
-226 24 -70 26 -88 21 -164 -7 -93 -5 -89 -117 -235 -33 -44 -81 -122 -107
-173 -46 -92 -46 -94 -49 -208 -4 -128 -11 -152 -102 -351 -48 -105 -51 -117
-51 -193 0 -60 5 -90 20 -119 62 -122 303 -243 610 -305 87 -18 298 -36 413
-36 l79 0 77 -72 c146 -137 380 -273 606 -351 252 -87 720 -179 1050 -206 214
-18 627 -36 755 -33 174 3 251 15 520 78 129 30 272 63 317 74 111 25 262 93
318 142 l46 40 76 -82 c56 -60 82 -96 94 -134 41 -121 232 -224 479 -257 187
-25 286 -42 295 -49 6 -5 91 -7 190 -5 185 3 308 19 448 57 88 23 121 21 216
-17 89 -34 133 -33 182 6 21 17 39 37 39 44 0 7 11 26 24 42 71 85 248 378
320 528 70 145 103 221 110 246 3 17 17 31 36 39 79 33 133 138 158 312 15
101 15 109 -2 145 -16 34 -18 65 -17 293 1 239 8 446 16 498 2 12 6 113 10
225 3 111 8 213 11 226 3 12 5 208 5 435 -1 386 -3 555 -16 921 -2 83 -7 285
-10 450 -15 830 -26 1007 -81 1335 -44 258 -63 330 -132 496 -35 83 -34 81
-108 204 -77 129 -126 190 -260 329 -103 107 -114 122 -114 155 0 45 -19 126
-34 145 -6 8 24 -11 66 -43 152 -114 295 -146 399 -89 41 22 49 31 49 55 0 15
-2 28 -4 28 -2 0 -24 -12 -50 -26 -41 -23 -55 -26 -124 -22 -67 3 -88 9 -164
48 -49 24 -110 64 -137 87 l-50 44 19 32 c58 99 56 313 -5 572 -7 28 -6 29 7
10 8 -11 21 -36 28 -55 42 -108 130 -252 209 -341 22 -26 72 -68 111 -95 69
-47 72 -48 158 -52 67 -3 92 0 107 11 24 19 18 27 -26 32 -55 7 -157 65 -210
119 -83 85 -212 278 -286 429 -29 59 -53 110 -53 113 0 3 27 -20 61 -53 116
-112 228 -166 364 -177 39 -3 101 -10 139 -15 72 -10 103 -4 125 23 11 13 11
19 1 31 -10 12 -15 12 -37 -2 -57 -37 -201 -14 -343 55 -159 78 -276 177 -367
312 -28 42 -213 391 -201 380 3 -3 38 -54 78 -113 123 -185 294 -349 443 -423
114 -58 277 -83 285 -44 2 12 -13 15 -87 16 -81 1 -97 5 -165 37 -225 107
-377 270 -574 617 l-72 125 7 60 c12 117 8 363 -8 460 -55 333 -92 488 -164
692 -43 119 -74 194 -190 458 -154 349 -182 448 -200 715 -3 41 -7 100 -10
130 -3 30 -9 111 -15 180 -20 244 -27 305 -40 370 -6 25 -21 113 -36 195 -68
403 -238 815 -449 1095 -87 115 -182 208 -335 331 -63 50 -150 125 -192 164
-73 68 -108 91 -200 129 -21 8 -38 21 -38 29 0 8 -36 48 -79 90 -89 85 -98 88
-256 105 -60 6 -118 18 -145 31 -58 27 -82 26 -185 -4 l-84 -24 -58 20 c-81
29 -198 44 -237 31 -18 -6 -114 -9 -233 -7 -205 2 -351 -14 -453 -49 l-40 -14
-46 90 c-60 114 -93 141 -178 144 -33 1 -72 0 -86 -3z m122 -23 c49 -14 89
-62 138 -166 40 -83 48 -133 24 -141 -7 -2 -25 18 -42 44 -39 62 -86 110 -136
135 -57 29 -190 22 -301 -16 -189 -65 -397 -187 -555 -323 -70 -61 -246 -241
-368 -378 -30 -34 -41 -42 -23 -19 16 22 85 101 151 175 192 212 303 312 491
441 218 150 370 223 511 247 73 12 69 12 110 1z m-15 -155 c28 -14 58 -34 67
-44 16 -17 13 -18 -56 -24 -167 -13 -495 -109 -698 -205 -30 -14 -86 -46 -124
-70 -38 -24 -76 -46 -85 -50 -9 -3 -32 -16 -51 -30 -65 -45 83 87 175 156 194
146 351 227 530 273 104 26 180 24 242 -6z m1133 -35 c86 -34 91 -35 168 -16
116 29 167 37 170 26 2 -5 11 -10 19 -10 9 0 44 -20 79 -45 34 -25 71 -45 81
-45 12 1 6 7 -18 20 -41 22 -77 59 -46 47 10 -4 48 -7 83 -7 50 0 64 -3 64
-15 0 -17 17 -20 22 -4 5 16 58 -8 96 -44 52 -49 115 -127 109 -134 -8 -7 -77
36 -77 48 0 6 -8 5 -20 -1 -11 -6 -25 -8 -30 -5 -6 3 -10 4 -10 1 0 -5 55 -36
65 -37 2 0 15 -8 27 -19 13 -10 84 -69 158 -130 150 -124 189 -159 339 -304
120 -116 115 -102 -9 27 -130 135 -305 290 -404 357 -49 33 -87 60 -84 60 29
0 129 -61 182 -111 39 -36 75 -62 90 -63 13 0 22 -4 19 -9 -2 -4 8 -12 22 -17
33 -12 175 -116 264 -191 117 -99 250 -257 319 -379 11 -19 38 -68 61 -108 47
-82 111 -223 148 -327 14 -38 31 -83 38 -100 8 -16 24 -70 36 -120 12 -49 24
-97 27 -105 3 -8 6 -19 6 -25 2 -13 34 -153 51 -225 16 -64 51 -342 60 -480 4
-52 8 -109 10 -126 2 -17 6 -116 10 -220 7 -236 1 -217 240 -769 101 -235 191
-468 199 -515 1 -8 5 -22 9 -30 4 -8 11 -35 16 -60 5 -25 17 -74 26 -110 25
-99 27 -110 13 -110 -7 0 -6 -5 4 -12 16 -14 45 -164 54 -283 3 -39 7 -75 9
-82 2 -6 0 -26 -5 -43 -6 -21 -5 -28 2 -24 15 10 3 -235 -13 -250 -9 -8 -10
-8 -5 2 4 7 2 12 -6 12 -9 0 -10 2 -1 8 12 8 13 112 1 112 -8 0 -11 -23 -9
-70 0 -18 -4 -12 -15 19 -12 32 -13 45 -5 50 7 5 3 12 -14 19 -14 6 -25 17
-25 24 0 9 3 8 10 -2 7 -11 10 2 10 43 0 41 3 56 12 51 7 -5 8 -3 2 7 -4 8 -9
82 -10 164 -2 216 -12 305 -45 430 -47 177 -107 328 -248 620 -37 77 -74 155
-81 173 -21 53 -32 38 -25 -35 17 -183 22 -218 50 -348 14 -60 27 -126 30
-145 3 -19 18 -84 32 -145 14 -60 29 -126 33 -145 12 -52 77 -281 89 -315 6
-16 33 -98 61 -182 51 -154 58 -174 91 -250 11 -24 19 -47 19 -53 0 -16 75
-200 144 -353 36 -78 74 -178 86 -222 12 -44 35 -123 50 -175 38 -125 108
-430 118 -511 17 -147 1 -321 -34 -350 -10 -8 -22 7 -54 71 -41 81 -41 81 -29
141 20 102 -15 230 -125 463 -36 76 -66 140 -66 142 0 2 -14 32 -31 66 -53
110 -146 339 -182 454 -19 60 -45 132 -57 160 -43 93 -71 177 -110 327 -36
136 -50 179 -50 150 0 -23 79 -341 99 -398 12 -33 30 -72 41 -87 21 -29 52
-128 93 -298 14 -58 55 -226 90 -375 36 -148 68 -286 72 -305 3 -19 18 -82 32
-139 22 -86 25 -106 14 -123 -11 -18 -11 -20 3 -15 9 4 16 2 16 -3 0 -6 -6
-10 -12 -10 -10 0 -10 -2 0 -8 15 -10 25 -79 13 -86 -15 -10 -31 50 -18 65 10
11 9 11 -5 0 -13 -10 -15 -18 -6 -42 6 -17 8 -32 5 -35 -2 -3 -17 31 -33 76
-16 44 -32 80 -36 80 -10 0 -11 2 8 -60 9 -30 26 -106 39 -170 12 -63 24 -122
27 -130 3 -8 3 -12 1 -7 -3 4 -8 5 -13 2 -4 -3 -8 1 -7 8 1 36 -4 57 -13 52
-6 -4 -7 1 -3 12 6 15 4 16 -9 5 -11 -9 -18 -10 -23 -2 -3 5 -11 10 -17 10 -6
0 -2 -8 9 -17 14 -13 18 -24 13 -38 -7 -18 -8 -18 -11 5 -4 28 -39 42 -39 15
0 -9 -5 -13 -11 -9 -6 3 -15 1 -19 -6 -6 -9 -12 -9 -30 0 -12 6 -24 9 -28 6
-3 -3 0 -6 6 -6 7 0 12 -9 12 -20 0 -11 6 -20 13 -21 6 0 3 -4 -8 -9 -15 -6
-16 -9 -4 -9 23 -1 30 10 16 27 -10 13 -9 15 6 9 9 -3 17 -2 17 3 0 6 4 10 10
10 17 0 -42 -99 -91 -153 -25 -28 -48 -46 -52 -41 -3 6 5 35 19 65 43 90 52
168 49 402 -2 116 -5 223 -8 237 -3 14 -8 57 -12 95 -9 105 -43 362 -55 425
-20 104 -62 271 -67 266 -3 -2 7 -59 21 -125 14 -66 31 -164 37 -218 6 -54 12
-111 15 -128 2 -16 6 -59 10 -95 3 -36 9 -81 14 -101 4 -21 4 -42 0 -49 -10
-16 -16 -2 -15 33 1 24 -1 26 -11 13 -12 -17 -25 -11 -18 8 2 6 -12 45 -32 86
-19 41 -55 121 -79 180 -24 58 -54 130 -68 160 -28 59 -133 490 -164 665 -3
17 -11 62 -19 100 -22 106 -63 390 -70 480 -17 228 -23 260 -18 96 3 -90 9
-198 15 -240 5 -42 11 -96 14 -121 17 -138 29 -211 61 -365 19 -93 48 -218 64
-277 15 -58 25 -109 22 -113 -4 -4 -7 -33 -8 -66 -1 -57 0 -59 22 -55 13 3 24
0 24 -6 0 -5 -7 -8 -15 -4 -11 4 -15 -2 -16 -22 -1 -15 -3 -20 -6 -10 -2 9
-10 19 -17 21 -9 4 -6 -12 8 -48 15 -39 23 -49 28 -37 4 11 6 3 6 -18 -1 -19
2 -48 6 -65 4 -16 -11 15 -32 70 -22 55 -53 134 -70 175 -29 71 -39 115 -76
350 -8 52 -22 138 -31 190 -9 52 -29 181 -45 285 -16 105 -49 298 -74 430 -25
132 -57 330 -71 440 -36 286 -77 487 -197 955 -74 292 -182 647 -223 737 -8
17 -15 35 -15 40 0 13 -93 234 -97 230 -2 -2 14 -49 36 -103 64 -160 98 -257
162 -464 71 -230 190 -690 212 -825 2 -11 9 -40 16 -64 7 -24 10 -55 6 -70 -4
-20 -3 -23 5 -11 9 11 10 5 5 -25 -7 -47 33 -310 71 -465 32 -131 74 -366 119
-670 19 -129 50 -329 69 -445 45 -271 63 -452 71 -705 4 -113 9 -214 11 -225
5 -18 4 -18 -6 -2 -18 29 -137 399 -161 504 -13 54 -25 91 -27 82 -7 -36 60
-285 155 -574 72 -222 150 -388 222 -475 26 -30 45 -61 43 -70 -2 -12 -1 -12
6 -2 7 10 15 6 36 -18 14 -17 24 -35 21 -40 -3 -4 3 -14 13 -21 16 -13 16 -12
2 6 -11 15 -7 14 13 -4 15 -14 25 -27 22 -29 -3 -3 0 -11 6 -18 8 -9 7 -18 -1
-31 -10 -16 -10 -15 -5 5 4 13 2 22 -5 22 -6 0 -9 -4 -5 -9 6 -10 -21 -41 -35
-41 -5 0 -22 16 -37 35 -29 36 -63 47 -63 20 0 -9 6 -12 15 -9 8 4 15 1 15 -6
0 -6 25 -35 55 -64 54 -52 55 -53 25 -48 -24 3 -30 8 -25 21 5 13 4 14 -6 4
-7 -7 -18 -13 -24 -13 -5 0 -2 5 8 11 16 9 14 13 -14 49 -18 22 -34 39 -38 38
-3 0 -8 1 -11 2 -3 1 -17 3 -31 4 -20 1 -25 -2 -21 -14 3 -8 -9 -2 -27 15 -17
16 -29 35 -26 43 2 7 1 10 -5 7 -12 -7 -60 64 -60 90 0 30 -18 53 -28 37 -6
-9 -14 0 -25 29 -20 51 -32 46 -18 -7 19 -72 19 -152 1 -246 -27 -136 -57
-207 -118 -278 -30 -36 -83 -76 -69 -53 3 5 -3 9 -13 9 -14 0 -16 -4 -9 -12 7
-9 1 -15 -23 -23 -38 -12 -174 -19 -184 -9 -8 8 36 51 98 94 34 25 49 45 66
89 20 51 22 75 21 233 -1 173 -1 175 -14 112 -12 -61 -24 -134 -25 -154 0 -16
-31 17 -50 53 -19 38 -51 175 -71 306 -14 90 -18 444 -6 605 14 208 19 806 7
938 -29 315 -98 821 -151 1107 -17 88 -48 259 -69 380 -53 295 -81 412 -128
530 -126 320 -197 478 -273 606 -17 30 -106 191 -196 359 -91 168 -197 355
-237 415 -117 177 -247 315 -395 419 -78 55 -53 26 37 -43 72 -55 172 -151
239 -231 64 -75 227 -343 295 -485 10 -22 26 -53 34 -70 13 -26 9 -24 -28 15
-24 25 -81 90 -128 145 -128 149 -250 282 -331 360 -44 43 -22 15 57 -71 247
-269 583 -685 524 -649 -7 4 4 -21 24 -56 82 -142 196 -393 184 -404 -2 -2
-86 78 -188 178 -205 202 -355 341 -535 497 -66 57 -162 145 -213 194 -80 77
-99 103 -130 171 -210 458 -394 714 -582 808 -71 35 -78 37 -142 31 -38 -4
-73 -12 -78 -19 -8 -10 -1 -11 32 -4 130 25 206 -7 341 -144 225 -229 423
-628 572 -1153 19 -67 37 -141 40 -165 6 -40 5 -42 -8 -26 -9 10 -32 62 -53
115 -21 53 -82 198 -136 322 -231 526 -431 840 -603 949 -40 25 -59 31 -107
31 -75 0 -76 -15 0 -16 66 -1 98 -16 164 -73 87 -77 207 -251 322 -466 60
-111 298 -643 350 -780 13 -33 33 -78 45 -100 11 -22 21 -48 21 -58 0 -10 4
-26 9 -35 5 -9 11 -30 15 -47 3 -16 14 -79 26 -139 11 -60 19 -114 18 -120 -1
-6 4 -42 10 -81 43 -250 50 -865 10 -865 -5 0 -6 -5 -3 -11 4 -6 2 -39 -5 -75
-15 -81 -35 -99 -25 -23 17 124 20 171 19 309 -4 363 -59 753 -110 783 -8 4
-14 13 -14 18 0 6 5 7 10 4 13 -8 13 -8 -6 56 -22 77 -36 107 -48 103 -6 -2
-49 28 -96 68 -68 58 -77 63 -45 28 21 -25 60 -61 85 -81 51 -41 74 -66 83
-92 6 -16 4 -16 -21 -3 -15 8 -48 32 -74 55 -25 23 -50 41 -54 41 -15 0 52
-63 109 -101 31 -22 57 -47 57 -55 0 -12 -8 -9 -31 11 -44 36 -49 23 -6 -15
20 -17 34 -37 31 -44 -3 -8 4 -16 15 -19 12 -3 21 -11 21 -17 0 -7 -7 -10 -15
-6 -20 7 -19 0 4 -21 12 -11 24 -42 30 -78 13 -75 21 -116 26 -135 2 -8 7 -46
10 -85 4 -38 11 -99 15 -135 4 -36 7 -168 5 -295 -4 -258 -12 -324 -72 -535
-21 -75 -101 -244 -151 -317 -44 -65 -145 -163 -168 -163 -8 0 -14 -4 -14 -10
0 -39 98 25 181 118 56 62 164 276 208 412 43 132 78 307 87 424 5 65 10 93
16 83 5 -9 6 -39 4 -67 -3 -27 0 -50 5 -50 5 0 9 37 9 81 0 71 -2 80 -15 69
-13 -11 -15 -5 -14 44 1 34 5 53 12 49 6 -4 7 16 3 58 -3 35 -8 96 -11 134 -3
39 -13 125 -21 193 -9 68 -13 126 -10 129 3 4 19 -5 34 -19 15 -14 51 -38 80
-52 28 -15 52 -31 52 -36 0 -6 7 -10 15 -10 8 0 32 -9 52 -20 60 -32 85 -25
32 8 -44 28 -79 62 -64 62 5 0 29 -13 54 -29 67 -42 146 -73 173 -68 23 4 23
4 -2 6 -14 1 -54 16 -90 35 -153 78 -205 107 -224 125 -12 10 -34 26 -51 34
-62 31 -79 65 -91 182 -3 22 -9 51 -14 65 -5 14 -16 57 -24 95 -9 39 -18 81
-22 95 -6 21 1 17 49 -27 73 -66 373 -266 534 -355 29 -16 56 -34 59 -40 4 -7
2 -8 -4 -4 -7 4 -12 2 -12 -3 0 -6 7 -11 16 -11 8 0 13 -4 10 -9 -3 -5 3 -11
14 -14 11 -3 20 -1 20 3 0 10 109 -52 110 -62 0 -5 -12 -8 -27 -8 -22 0 -47
-19 -114 -89 -112 -116 -156 -129 -240 -73 -24 16 -55 33 -69 37 -40 11 -130
57 -130 67 0 4 -5 8 -12 8 -6 0 -23 10 -36 23 -16 14 -23 17 -20 7 2 -8 39
-38 81 -66 79 -52 130 -94 123 -101 -5 -6 -66 25 -89 45 -18 16 -31 14 -19 -4
12 -19 205 -114 243 -120 35 -6 38 -3 134 100 121 129 159 151 248 143 34 -4
80 -12 101 -18 43 -12 96 -58 96 -84 0 -12 -11 -9 -47 17 -42 28 -56 33 -109
33 -75 0 -113 -26 -173 -117 -53 -81 -54 -99 -3 -88 20 5 62 13 92 19 58 12
120 43 120 61 0 6 -16 4 -37 -6 -52 -22 -153 -54 -170 -54 -14 0 -10 10 45 93
51 77 144 101 212 55 19 -13 33 -26 32 -30 0 -4 12 -37 29 -73 16 -35 29 -67
29 -70 0 -4 -15 4 -32 16 l-33 22 33 -34 c26 -29 32 -43 32 -79 0 -50 -42
-247 -60 -280 -11 -21 -77 -56 -87 -46 -3 2 1 21 7 42 17 51 6 156 -22 213
-19 37 -34 51 -78 73 -103 51 -190 56 -190 12 0 -34 37 -92 94 -146 37 -36 57
-62 53 -71 -3 -8 -25 -21 -49 -29 -28 -10 -51 -26 -66 -49 -21 -31 -23 -41
-17 -103 5 -50 4 -70 -5 -76 -19 -11 24 -50 55 -50 34 0 73 21 137 73 29 24
68 49 86 56 35 14 54 35 147 156 58 74 60 76 63 48 6 -62 -79 -234 -166 -334
-22 -24 -50 -64 -65 -89 -14 -25 -42 -60 -61 -79 l-34 -33 -16 31 c-9 17 -27
33 -41 37 -27 7 -89 -11 -102 -29 -13 -17 -14 -62 -3 -93 l11 -27 -95 7 -95 6
-14 -27 c-8 -16 -22 -53 -32 -83 -10 -30 -26 -72 -37 -92 -10 -21 -16 -38 -13
-38 2 0 22 35 44 78 22 43 46 83 53 90 8 6 51 14 97 18 77 7 83 6 97 -15 9
-12 19 -19 24 -16 5 3 11 1 15 -5 10 -16 56 -12 77 6 14 14 20 14 33 4 8 -7
12 -16 9 -21 -3 -6 8 -31 25 -58 17 -26 31 -53 31 -59 0 -17 -25 -15 -40 3
-24 29 -20 8 9 -52 17 -33 41 -103 55 -154 27 -101 87 -355 91 -379 8 -54 18
-100 30 -130 8 -19 28 -87 46 -150 18 -63 38 -127 46 -142 18 -37 17 -42 -14
-78 -39 -47 -113 -99 -249 -174 -273 -151 -492 -228 -760 -270 -122 -19 -289
-21 -324 -3 -28 14 -60 66 -91 147 -55 146 -173 336 -216 346 -18 5 -74 -18
-219 -90 -217 -108 -276 -125 -351 -107 -64 17 -91 34 -245 163 -345 286 -463
399 -572 548 -89 120 -134 234 -186 460 -19 84 -79 299 -94 340 -4 10 7 23 34
40 25 16 36 28 30 34 -6 6 -20 0 -38 -17 -31 -29 -43 -25 -54 18 -3 11 -9 27
-13 37 -4 11 0 18 15 23 20 6 22 12 17 51 -2 25 -12 53 -21 63 -19 21 -21 34
-3 28 6 -2 26 4 42 14 17 10 49 21 72 25 36 5 42 4 48 -15 8 -25 20 -27 29 -5
4 10 16 14 38 12 25 -2 35 -9 42 -31 11 -31 1 -43 -45 -53 -21 -5 -25 -10 -21
-27 7 -28 87 -107 108 -107 10 0 14 -5 10 -15 -3 -8 -1 -15 4 -15 11 0 104 61
108 72 2 5 8 6 13 2 12 -7 11 13 -1 56 -6 19 -12 57 -14 83 -3 36 -14 62 -44
106 -23 32 -41 66 -41 77 1 10 -2 30 -5 44 -34 133 -41 204 -41 437 0 233 -5
269 -20 153 -6 -49 -51 -233 -89 -365 -8 -27 -24 -85 -36 -128 -11 -44 -27
-89 -34 -100 -8 -12 -27 -57 -42 -99 -16 -43 -32 -78 -36 -78 -4 0 3 29 16 64
14 35 30 109 36 163 6 54 15 114 20 133 5 19 11 56 15 82 3 26 8 55 12 65 4
10 2 14 -4 10 -7 -5 -9 0 -6 13 10 37 22 21 18 -23 -2 -24 0 -68 4 -98 6 -47
8 -37 14 76 4 72 13 180 22 240 13 101 20 234 11 224 -2 -2 -7 -38 -11 -79 -4
-41 -8 -82 -9 -90 -10 -59 -20 -130 -21 -155 -1 -16 -3 -38 -4 -47 0 -10 -5
-18 -10 -18 -4 0 -6 11 -3 25 8 43 -7 27 -21 -22 -16 -56 -41 -67 -68 -32 -10
13 -19 18 -19 11 0 -7 -4 -10 -10 -7 -5 3 -7 22 -5 43 32 266 34 275 74 332
51 73 92 140 87 140 -2 0 -47 -57 -99 -128 -53 -70 -107 -138 -122 -152 -39
-37 -92 -112 -92 -131 1 -32 -25 -77 -46 -84 -22 -6 -22 -6 -1 -15 18 -7 21
-17 22 -97 2 -106 7 -145 34 -246 11 -43 18 -80 15 -83 -8 -8 -77 71 -105 119
-14 23 -42 76 -64 117 -21 41 -36 64 -32 50 8 -30 72 -157 110 -219 l26 -43
-23 7 c-13 4 -24 8 -25 9 0 0 -13 18 -29 39 -15 21 -25 40 -21 44 3 3 0 13 -8
22 -15 18 -51 118 -61 174 -6 32 -5 36 9 31 12 -5 15 -2 10 10 -3 9 -11 13
-18 9 -6 -4 -5 1 3 11 19 23 49 38 91 47 32 6 33 7 7 8 -35 1 -83 -20 -120
-55 -15 -14 -31 -22 -36 -19 -11 6 -61 -56 -61 -76 0 -8 13 1 28 19 43 50 56
43 76 -45 28 -120 92 -226 147 -245 37 -13 37 -25 1 -33 -64 -14 -171 47 -209
118 -8 16 -17 27 -19 24 -3 -3 3 -22 14 -44 22 -42 62 -75 125 -103 32 -15 38
-20 24 -25 -9 -4 -17 -13 -17 -21 0 -10 14 -14 51 -14 29 0 48 -4 44 -10 -3
-5 -12 -7 -20 -3 -10 3 -13 0 -10 -8 7 -19 -102 -66 -116 -52 -6 6 -14 26 -19
44 -16 65 -48 141 -54 130 -4 -6 -2 -20 4 -31 6 -11 8 -20 6 -20 -12 0 -27 45
-42 122 -9 45 -20 90 -25 99 -4 9 -11 34 -14 55 -2 22 -9 66 -15 99 -5 33 -10
83 -10 110 0 28 -5 57 -11 65 -23 33 -2 -201 31 -330 17 -69 33 -134 36 -145
10 -40 -29 39 -53 109 -14 42 -27 105 -30 154 -3 45 -9 84 -12 86 -9 6 -1
-275 9 -309 7 -23 8 -15 5 30 -5 57 -4 58 9 30 45 -101 59 -130 70 -141 27
-27 75 -111 80 -139 2 -16 5 -31 5 -32 1 -2 1 -6 0 -10 0 -3 6 -10 15 -15 17
-9 22 -33 9 -41 -5 -2 -3 -3 3 -1 10 2 54 -63 56 -83 2 -17 84 -131 137 -190
31 -35 56 -67 56 -72 0 -5 4 -13 9 -18 5 -5 6 -3 2 5 -10 18 9 15 25 -4 7 -9
38 -33 69 -54 49 -33 58 -44 67 -84 12 -56 5 -58 -58 -18 -53 34 -162 132
-154 140 2 3 15 -3 27 -14 21 -17 21 -16 -1 9 -14 15 -30 27 -38 27 -16 0
-163 183 -235 293 -28 42 -53 77 -56 77 -12 0 73 -132 161 -250 125 -166 233
-276 309 -315 53 -27 76 -50 64 -63 -12 -11 -137 22 -182 48 -55 31 -154 116
-203 172 -39 45 -104 158 -162 280 -23 48 -44 86 -47 84 -6 -7 121 -267 176
-358 27 -46 78 -139 112 -207 67 -136 180 -313 239 -376 21 -22 45 -53 55 -68
9 -15 25 -31 34 -34 9 -4 31 -17 47 -29 17 -13 42 -28 55 -34 24 -10 23 -10
-5 -4 -50 10 -161 83 -252 167 -51 48 -130 158 -193 270 -17 31 -34 57 -36 57
-7 0 10 -37 59 -122 47 -84 52 -108 21 -108 -48 0 -193 110 -246 187 -18 27
-59 100 -90 163 -32 63 -58 105 -58 93 0 -23 -19 -43 -21 -21 0 9 -2 10 -5 1
-3 -6 2 -20 11 -30 32 -36 82 -121 69 -116 -12 4 -12 0 -5 -20 5 -14 7 -28 4
-31 -4 -3 -1 -6 5 -6 7 0 12 -7 12 -15 0 -7 6 -18 13 -22 6 -5 30 -29 52 -53
22 -25 5 -12 -37 29 -86 84 -123 146 -137 238 -10 67 -30 117 -31 78 0 -11 16
-88 34 -171 55 -241 152 -464 250 -573 22 -25 30 -37 16 -26 -14 11 -28 25
-32 30 -5 7 -8 6 -8 -1 0 -16 41 -51 74 -64 16 -6 26 -13 23 -16 -7 -8 -65 23
-111 60 -21 17 -58 58 -81 91 -85 120 -132 238 -184 465 -6 25 -22 93 -35 152
-14 59 -28 148 -31 199 -3 51 -8 95 -11 98 -4 3 -4 -30 -1 -74 l6 -80 -30 95
c-17 52 -35 104 -40 115 -5 11 -11 34 -14 51 -2 17 -11 49 -19 71 -8 23 -12
44 -9 47 3 3 2 11 -4 18 -25 34 -91 355 -109 530 l-6 67 45 52 c63 72 158 243
216 390 59 148 67 174 53 165 -6 -3 -14 -21 -17 -39 -12 -52 -80 -208 -134
-307 -63 -115 -121 -195 -202 -284 -54 -58 -64 -66 -70 -50 -5 14 3 27 32 52
46 39 158 188 216 287 41 69 118 244 111 251 -2 2 -17 -27 -33 -64 -53 -121
-198 -362 -211 -349 -7 6 17 229 37 347 20 121 22 136 15 129 -13 -13 -67
-317 -73 -406 -6 -97 -8 -107 -37 -143 -56 -69 -59 -65 -53 67 14 269 45 466
133 823 72 291 124 454 190 602 160 357 504 781 790 973 224 151 501 233 746
222 114 -5 134 -8 214 -38 30 -12 57 -19 60 -16 7 7 -109 48 -190 68 l-71 17
60 2 c54 2 57 3 26 10 -20 5 -72 3 -130 -6 -108 -15 -116 -16 -110 -10 5 5
155 40 217 51 41 7 68 -6 32 -15 -14 -4 6 -6 44 -6 l70 1 8 -32 c10 -38 27
-51 39 -32 7 11 9 11 9 1 0 -7 7 -20 15 -28 13 -13 20 -13 60 1 25 8 62 15 83
15 20 0 44 5 52 11 11 7 -4 8 -50 3 -121 -12 -114 -14 -121 34 -5 40 -4 42 20
43 25 1 25 2 -4 9 -29 7 -29 8 -5 10 14 1 33 2 43 1 9 -1 17 2 17 7 0 29 443
61 549 40 39 -8 70 -8 117 1 73 13 82 10 155 -50 26 -22 50 -39 53 -39 15 0
-9 24 -66 66 -70 51 -61 54 42 14z m293 23 c-7 -2 -19 -2 -25 0 -7 3 -2 5 12
5 14 0 19 -2 13 -5z m-1223 -163 c0 -5 -4 -10 -10 -10 -5 0 -10 5 -10 10 0 6
5 10 10 10 6 0 10 -4 10 -10z m1926 -179 c21 -15 48 -38 59 -51 l20 -23 -25 8
c-27 7 -122 95 -104 95 6 0 29 -13 50 -29z m-3793 -1006 c-3 -9 -8 -14 -10
-11 -3 3 -2 9 2 15 9 16 15 13 8 -4z m-20 -40 c-3 -9 -8 -14 -10 -11 -3 3 -2
9 2 15 9 16 15 13 8 -4z m-12 -42 c-24 -47 -120 -341 -126 -388 -1 -11 -12
-54 -24 -96 -30 -109 -98 -438 -111 -544 -6 -49 -15 -126 -20 -170 -6 -44 -12
-138 -14 -210 l-3 -129 -40 -36 c-23 -19 -55 -43 -72 -53 l-31 -18 -1 98 c-2
248 8 350 52 549 34 158 62 247 141 464 84 226 230 550 248 550 7 0 7 -6 1
-17z m2915 -134 c16 -17 155 -145 309 -283 154 -138 368 -337 475 -443 188
-185 197 -195 249 -295 40 -77 48 -98 31 -83 -13 11 -20 14 -15 6 6 -11 3 -13
-16 -7 -13 3 -45 11 -71 16 -52 10 -145 59 -173 90 -18 20 -18 20 16 14 19 -3
47 -10 63 -15 33 -10 103 -12 93 -2 -4 3 -19 7 -34 9 -82 6 -184 30 -228 52
-84 42 -346 201 -430 262 -121 88 -151 124 -159 190 -7 58 -18 100 -71 270
-18 58 -35 114 -38 125 -2 11 -14 44 -26 73 -24 60 -17 65 25 21z m733 -313
c-3 -3 -11 5 -18 17 -13 21 -12 21 5 5 10 -10 16 -20 13 -22z m330 -668 c18
-35 25 -58 18 -58 -14 0 -78 115 -69 124 8 9 17 -2 51 -66z m-817 -45 c83 -58
138 -105 138 -115 0 -6 -10 -3 -22 6 -13 9 -42 25 -65 37 -22 11 -49 29 -59
40 -9 10 -23 19 -31 19 -7 0 -13 4 -13 9 0 5 -3 16 -6 25 -9 23 0 20 58 -21z
m-2337 -135 c-10 -69 -23 -120 -32 -130 -10 -11 -12 -18 -5 -18 7 0 12 -5 12
-11 0 -9 -128 -5 -138 5 -2 2 6 21 17 42 12 21 21 49 21 61 0 15 26 51 68 97
37 40 69 72 70 70 2 -1 -4 -53 -13 -116z m3208 52 c-7 -8 -33 32 -33 49 0 9 8
3 19 -14 10 -16 16 -32 14 -35z m-2924 -507 c7 -28 11 -67 9 -85 l-3 -33 -97
-3 c-102 -3 -115 3 -83 38 13 14 25 15 77 8 88 -12 106 -2 70 38 -66 74 -73
85 -67 128 6 55 21 133 39 204 8 31 18 75 22 97 6 29 10 -11 15 -150 3 -104
11 -213 18 -242z m2338 317 c17 -15 37 -30 45 -32 7 -3 11 -8 8 -11 -10 -11
-108 40 -119 62 -6 11 -11 22 -11 26 0 9 42 -16 77 -45z m-2746 -57 c1 -16 2
-16 6 0 4 15 12 18 45 13 23 -3 43 -7 45 -9 2 -2 -6 -57 -17 -121 -11 -65 -20
-123 -21 -129 -1 -7 -9 22 -19 63 -10 41 -18 67 -19 58 -1 -21 41 -225 68
-326 24 -90 9 -96 -37 -12 -46 82 -82 231 -89 368 -6 110 -6 112 15 112 14 0
22 -7 23 -17z m-879 -196 c2 -59 1 -103 0 -97 -2 6 -7 8 -12 5 -11 -7 -47 106
-56 172 -6 46 -4 55 22 89 l29 37 7 -49 c4 -27 9 -97 10 -157z m1035 187 c6
-17 -27 -124 -39 -124 -4 0 -4 -7 -1 -17 4 -11 3 -14 -5 -9 -8 4 -12 0 -13
-11 0 -10 -3 -13 -5 -6 -3 6 2 48 10 93 9 45 16 84 16 86 0 12 32 2 37 -12z
m63 -30 c0 -8 -5 -12 -10 -9 -7 4 -9 -2 -5 -17 6 -28 -18 -63 -39 -55 -11 4
-12 14 -5 44 5 21 9 41 9 46 0 15 50 7 50 -9z m-1200 -28 c0 -2 -19 -19 -42
-36 l-43 -32 40 36 c40 36 45 39 45 32z m60 -236 c18 -46 35 -100 36 -120 12
-134 28 -263 39 -312 7 -31 11 -59 8 -62 -2 -2 2 -15 10 -28 8 -12 18 -39 22
-58 4 -19 14 -46 22 -58 24 -38 9 -35 -41 9 -97 85 -198 244 -247 385 -36 105
-69 252 -69 306 0 35 4 41 46 66 25 15 63 41 83 59 l36 32 11 -67 c7 -37 27
-105 44 -152z m1119 143 c0 -25 -1 -26 -9 -8 -12 27 -12 35 0 35 6 0 10 -12 9
-27z m-17 -29 c2 -45 -14 -200 -21 -207 -5 -5 -21 -7 -37 -5 -26 3 -30 8 -37
49 -8 41 -5 54 21 107 17 33 27 64 24 68 -4 4 -2 4 4 1 7 -4 15 1 18 10 8 20
27 5 28 -23z m-1010 -184 c6 -30 18 -66 26 -80 12 -21 10 -20 -12 5 -14 17
-24 36 -21 43 3 7 1 10 -4 7 -5 -3 -13 0 -17 6 -5 8 -3 9 6 4 9 -6 10 0 5 26
-9 38 -11 50 -18 134 -6 59 -6 58 8 -15 8 -41 20 -100 27 -130z m1157 96 c6
-4 11 -16 11 -27 0 -13 -7 -19 -24 -19 -35 0 -48 21 -40 69 l7 42 18 -29 c9
-17 22 -33 28 -36z m-353 -137 c12 -20 -22 -42 -52 -35 l-27 7 29 19 c35 22
41 23 50 9z m3534 -95 c12 -54 23 -115 26 -134 3 -19 11 -57 19 -85 7 -27 17
-72 20 -100 4 -27 9 -61 11 -75 3 -14 11 -61 19 -105 7 -44 16 -104 19 -133
l5 -53 -35 42 c-77 92 -152 296 -193 522 -10 57 -10 59 25 113 20 31 40 69 46
85 6 17 12 28 14 26 2 -2 13 -48 24 -103z m-3485 75 c11 -17 -1 -21 -15 -4 -8
9 -8 15 -2 15 6 0 14 -5 17 -11z m-855 -30 c0 -5 12 -28 27 -51 14 -24 29 -56
34 -73 14 -57 88 -301 114 -378 29 -83 27 -104 -8 -86 -100 52 -164 234 -193
549 -7 69 -6 74 9 61 10 -7 17 -17 17 -22z m812 -1 c-7 -7 -12 -8 -12 -2 0 14
12 26 19 19 2 -3 -1 -11 -7 -17z m-35 -74 c-9 -9 -28 6 -21 18 4 6 10 6 17 -1
6 -6 8 -13 4 -17z m124 -61 c8 -16 22 -37 31 -47 19 -21 15 -36 -10 -36 -18 0
-75 93 -64 104 12 13 29 4 43 -21z m3795 -68 c8 -48 13 -89 11 -92 -4 -4 -37
158 -37 181 0 30 13 -13 26 -89z m-4036 55 c-17 -4 -21 -8 -12 -14 6 -4 17 -4
22 -1 6 3 10 -1 10 -9 0 -20 1 -20 36 -1 16 8 37 15 47 15 10 0 15 5 12 10 -3
6 -2 10 2 10 15 0 111 -152 146 -230 19 -41 42 -104 52 -139 9 -36 20 -72 23
-80 7 -18 -72 37 -140 98 -68 61 -132 146 -189 254 -27 51 -49 95 -49 98 0 3
15 3 33 0 30 -4 31 -5 7 -11z m85 11 c-6 -5 -21 -12 -35 -16 -24 -7 -24 -7 -5
9 21 16 56 23 40 7z m91 -6 c1 -15 15 -48 28 -65 6 -9 -6 2 -26 25 -21 22 -38
44 -38 48 0 12 35 4 36 -8z m3390 -100 c39 -175 108 -362 159 -430 17 -22 41
-57 54 -77 12 -21 27 -38 32 -38 5 0 9 -8 9 -17 0 -16 -2 -16 -11 -3 -9 12
-10 11 -4 -5 12 -38 35 -158 31 -162 -2 -3 -41 33 -85 78 -72 73 -158 184
-223 288 l-21 33 41 -21 c47 -24 68 -26 78 -9 4 7 -2 18 -17 27 -34 22 -144
127 -191 183 l-39 47 29 28 c16 15 53 65 83 111 43 66 55 78 57 60 1 -13 9
-54 18 -93z m-2866 86 c0 -5 3 -17 7 -27 4 -12 3 -15 -5 -10 -8 5 -12 -1 -12
-16 0 -27 -44 -57 -73 -50 -24 5 -40 48 -27 71 5 10 6 21 3 25 -3 3 -1 6 5 6
6 0 14 -4 17 -10 10 -15 55 -12 61 5 7 16 24 21 24 6z m1816 -171 c-12 -35
-14 -38 -11 -12 10 66 19 98 22 77 2 -11 -3 -40 -11 -65z m2136 -40 c92 -184
157 -346 202 -502 28 -96 45 -273 45 -473 l0 -190 -21 39 c-42 81 -193 589
-222 748 -5 27 -25 118 -51 226 -6 29 -9 55 -4 57 4 3 1 18 -6 33 -8 15 -17
62 -21 106 -10 109 7 100 78 -44z m-1370 43 c23 -20 23 -33 1 -33 -10 0 -26
12 -36 25 -17 23 -17 25 -1 25 10 0 26 -7 36 -17z m-44 -25 c5 -25 -21 -23
-44 3 -19 21 -19 21 11 17 19 -2 31 -10 33 -20z m819 0 c-3 -8 -6 -5 -6 6 -1
11 2 17 5 13 3 -3 4 -12 1 -19z m-857 -23 c7 -9 19 -14 27 -11 11 4 11 1 3
-15 -10 -17 -7 -23 14 -40 29 -23 34 -56 10 -66 -21 -8 -47 21 -68 75 -25 65
-17 95 14 57z m115 -14 c6 -20 -8 -65 -23 -75 -20 -12 -23 28 -6 82 5 18 22
15 29 -7z m137 -76 c21 -23 36 -45 33 -48 -3 -4 -2 -5 2 -2 3 3 25 -12 48 -33
23 -20 50 -43 61 -50 10 -7 -8 1 -41 19 -73 38 -115 76 -115 103 0 14 -3 17
-8 9 -5 -9 -17 1 -35 29 -33 51 -36 87 -4 44 12 -17 39 -49 59 -71z m-92 75
c0 -5 -4 -10 -10 -10 -5 0 -10 5 -10 10 0 6 5 10 10 10 6 0 10 -4 10 -10z
m-870 -30 c0 -5 -5 -10 -11 -10 -5 0 -7 5 -4 10 3 6 8 10 11 10 2 0 4 -4 4
-10z m876 -17 c4 -10 6 -22 5 -26 -1 -5 3 -6 7 -3 13 8 71 -65 177 -219 50
-71 134 -175 188 -232 55 -57 97 -108 94 -115 -3 -8 -6 -6 -6 5 -1 10 -5 15
-11 12 -5 -3 -10 2 -11 12 0 10 -3 13 -6 6 -7 -19 -82 46 -150 130 -101 126
-203 237 -203 221 0 -8 24 -41 53 -72 29 -31 82 -93 118 -137 87 -108 173
-193 204 -201 14 -3 25 -9 26 -13 3 -19 9 -84 14 -146 3 -38 8 -80 10 -92 3
-13 3 -23 1 -23 -8 0 -109 159 -166 260 -61 108 -129 213 -142 218 -5 2 -25
35 -44 74 -49 96 -57 85 -13 -17 17 -40 108 -322 129 -400 11 -44 32 -134 45
-200 24 -117 44 -188 58 -201 12 -12 8 -26 -5 -18 -7 4 -3 -3 10 -15 20 -20
27 -31 19 -31 -2 0 -17 11 -33 25 -16 14 -25 25 -21 25 4 0 -8 14 -28 32 -20
17 -44 47 -54 67 -18 35 -81 235 -106 336 -7 28 -24 88 -37 135 -38 129 -42
147 -27 133 26 -26 32 -12 6 15 -14 15 -28 39 -31 54 -2 14 -9 35 -15 46 -16
30 -14 35 14 28 32 -8 31 -4 -4 48 -18 26 -26 47 -21 55 8 14 -9 71 -22 71 -4
0 -8 5 -8 11 0 5 5 7 10 4 6 -3 10 5 10 19 0 15 -8 30 -20 36 -17 9 -19 8 -14
-7 4 -12 -1 -10 -15 7 -11 14 -16 26 -11 28 5 2 5 13 1 25 -14 39 8 66 25 30z
m-3802 -219 c3 -8 2 -14 -1 -14 -10 0 -53 42 -53 52 0 12 47 -21 54 -38z m159
-4 c3 -11 1 -18 -4 -14 -5 3 -9 12 -9 20 0 20 7 17 13 -6z m3685 -51 c19 -30
-6 -21 -26 9 -12 19 -12 22 -1 17 8 -3 20 -15 27 -26z m-3146 -85 l57 -17 7
-56 c4 -31 17 -111 29 -178 l22 -123 -31 24 c-42 32 -161 208 -229 338 l-56
108 72 -39 c40 -22 98 -47 129 -57z m109 -26 c8 -7 36 -68 63 -134 26 -67 60
-142 76 -168 l30 -46 -54 0 c-72 0 -94 19 -100 85 -2 28 -8 58 -11 68 -5 11
-2 17 6 17 10 0 11 2 2 8 -11 7 -30 74 -31 112 -1 8 -4 27 -8 43 -7 29 3 35
27 15z m3319 -253 c90 -159 151 -256 173 -274 9 -7 14 -17 11 -22 -3 -5 -2 -9
3 -9 4 0 10 -72 11 -160 2 -92 0 -160 -5 -160 -25 0 -102 33 -97 41 3 5 -4 29
-15 52 -21 44 -50 149 -96 352 -22 96 -68 253 -112 383 -9 27 47 -63 127 -203z
m-3541 -2 c11 -22 10 -22 -15 -13 -45 18 -50 24 -24 30 14 4 26 6 26 6 1 -1 7
-11 13 -23z m347 -118 c57 -1 64 -3 89 -33 16 -20 21 -30 11 -26 -9 3 -16 11
-16 16 0 7 -5 6 -13 -1 -23 -19 -130 -6 -165 19 -36 27 -32 45 7 34 14 -4 54
-8 87 -9z m75 -88 c-10 -9 -11 -8 -5 6 3 10 9 15 12 12 3 -3 0 -11 -7 -18z
m289 -516 c0 -157 2 -313 5 -346 3 -33 7 -105 10 -160 2 -55 11 -125 20 -155
8 -30 22 -82 31 -115 9 -33 20 -68 25 -77 5 -10 5 -18 -1 -20 -18 -6 42 -110
89 -156 25 -24 46 -47 46 -52 0 -5 4 -12 9 -17 5 -5 6 -2 1 5 -6 11 -3 12 14
3 11 -7 21 -14 21 -17 0 -3 -5 -2 -12 2 -8 5 -9 2 -5 -9 3 -10 2 -17 -3 -17
-6 0 -10 6 -11 13 0 8 -2 8 -5 1 -5 -12 -44 -6 -99 15 -38 16 -76 51 -68 64 3
6 2 7 -4 4 -6 -4 -20 5 -33 18 -20 21 -21 27 -9 42 13 16 12 17 -3 5 -15 -12
-20 -8 -43 38 -15 29 -24 59 -21 67 3 8 2 12 -2 9 -10 -6 -72 150 -72 181 0
12 -4 25 -10 28 -6 3 -10 -4 -10 -16 0 -19 -18 -85 -27 -98 -2 -3 -10 4 -18
15 -11 15 -14 16 -15 4 0 -9 6 -22 13 -29 8 -9 8 -12 0 -7 -6 3 -14 0 -17 -6
-3 -7 -4 7 -1 32 24 231 28 329 16 449 -13 147 -31 251 -66 399 -14 59 -35
143 -45 188 -11 44 -26 97 -35 117 -19 47 -20 44 18 43 37 -1 54 17 20 22 -13
2 -23 10 -23 18 0 18 24 18 40 -1 21 -26 38 -18 35 16 -3 29 6 23 121 -92
l123 -123 1 -285z m-333 513 c-3 -3 -12 -4 -19 -1 -8 3 -5 6 6 6 11 1 17 -2
13 -5z m-31 -102 c12 -26 36 -111 53 -188 18 -76 36 -155 41 -174 8 -32 33
-197 43 -277 2 -18 0 -30 -5 -27 -4 3 -8 0 -8 -5 0 -6 4 -11 8 -11 4 0 8 -19
9 -42 1 -38 0 -40 -9 -18 -16 41 -109 412 -114 455 -3 22 -7 46 -9 53 -6 16
-41 191 -50 250 -9 57 12 49 41 -16z m648 -351 c103 -91 126 -162 131 -406 4
-183 -6 -265 -38 -309 -64 -91 -120 -107 -199 -57 -54 34 -87 86 -118 186 -23
73 -26 128 -33 611 l-2 181 99 -76 c54 -42 126 -100 160 -130z m839 5 c10 -8
38 -49 62 -92 36 -62 45 -88 45 -126 0 -44 -3 -50 -46 -85 -25 -21 -58 -48
-72 -60 -15 -13 -29 -23 -32 -23 -3 0 -6 49 -8 108 -2 59 -11 144 -22 190 -16
76 -17 83 -1 92 23 13 53 12 74 -4z m1897 -26 c12 -6 15 -24 13 -77 -1 -37 -2
-85 -2 -107 -1 -31 -8 -45 -38 -72 -20 -18 -39 -31 -43 -29 -4 2 -17 36 -30
74 -23 68 -24 71 -7 106 9 20 17 56 17 81 l0 46 37 -7 c21 -4 45 -10 53 -15z
m-2002 -88 c4 -140 -25 -311 -50 -296 -7 4 -8 2 -4 -4 4 -7 4 -17 0 -24 -5 -8
-10 -6 -16 8 -7 16 -8 15 -4 -5 3 -15 -3 -32 -18 -48 l-23 -25 18 59 c21 69
38 208 40 318 1 69 4 82 23 97 11 10 23 18 26 18 3 0 7 -44 8 -98z m-76 -29
c-3 -90 -17 -176 -53 -341 -13 -55 -32 -82 -44 -62 -5 8 -12 7 -23 -2 -16 -12
-16 -11 -1 7 31 39 34 48 9 35 -12 -6 -26 -25 -32 -41 -6 -17 -12 -28 -14 -27
-2 2 8 39 21 81 34 107 42 224 21 306 -10 35 -16 64 -14 66 5 5 123 64 128 65
3 0 4 -39 2 -87z m-136 -167 c-3 -88 -10 -132 -35 -215 -33 -107 -38 -115
-118 -171 -49 -36 -58 -37 -42 -9 6 12 15 49 19 82 5 34 14 63 20 65 5 2 7 8
4 14 -4 6 0 14 7 19 8 5 9 9 3 9 -8 0 -8 11 2 40 8 21 11 47 7 56 -4 11 -2 15
4 11 6 -4 8 3 6 17 -3 14 0 32 6 43 9 15 10 13 11 -17 0 -30 -19 -148 -35
-218 -3 -13 -10 -20 -15 -17 -6 4 -10 -10 -9 -32 1 -26 3 -32 7 -18 4 11 15
31 24 45 9 14 26 75 38 136 19 95 21 124 13 208 l-9 97 41 18 40 18 8 -35 c4
-19 5 -85 3 -146z m-218 111 c32 -2 48 -1 40 4 -9 6 -6 9 10 9 23 0 23 0 21
-142 -1 -79 -5 -150 -10 -158 -4 -8 -19 -58 -34 -110 -34 -116 -128 -353 -158
-397 -12 -18 -29 -34 -39 -36 -18 -5 -32 18 -21 36 4 7 -1 6 -10 -2 -18 -14
-24 -36 -7 -26 6 3 10 1 10 -4 0 -6 -9 -11 -20 -11 -20 0 -19 2 5 48 55 105
88 506 59 717 -20 146 -23 137 44 105 32 -16 80 -30 110 -33z m112 -59 c0 -39
-2 -69 -5 -66 -9 9 -11 147 -2 141 4 -2 7 -36 7 -75z m347 60 c-3 -8 -6 -5 -6
6 -1 11 2 17 5 13 3 -3 4 -12 1 -19z m1866 -136 c11 -14 -4 -30 -102 -100
-128 -90 -415 -272 -431 -272 -5 0 -10 -3 -12 -8 -3 -7 -81 -54 -378 -227 -74
-43 -152 -92 -172 -107 -37 -29 -37 -29 -35 -98 2 -37 8 -74 15 -82 8 -11 8
-26 -4 -64 -9 -27 -16 -55 -17 -61 0 -7 -4 -13 -9 -13 -21 0 11 -107 58 -192
8 -15 15 -31 15 -35 1 -5 8 -24 16 -43 27 -62 26 -85 -1 -98 -13 -6 -39 -14
-58 -17 -22 -4 -64 -34 -123 -86 -49 -43 -101 -82 -114 -86 -21 -5 -84 2 -193
24 -25 5 -28 3 -28 -24 0 -16 -17 -62 -38 -103 -62 -119 -219 -369 -278 -441
-101 -123 -273 -280 -404 -368 -69 -46 -135 -93 -147 -104 -13 -11 -26 -18
-29 -14 -3 3 5 61 20 129 22 105 48 247 87 473 26 152 144 454 287 740 189
375 224 422 473 623 42 34 89 76 104 94 l28 33 -8 -50 c-21 -133 18 -235 89
-235 128 0 166 238 60 378 -14 17 -22 32 -18 32 3 0 -1 11 -10 25 -9 13 -16
27 -16 30 0 3 40 5 90 5 312 0 1010 247 1184 420 l50 49 19 -57 c10 -31 24
-63 30 -70z m1311 51 c9 -18 14 -33 12 -33 -6 0 -36 55 -36 66 0 11 5 3 24
-33z m-1204 -223 c-6 -63 -13 -126 -15 -140 -2 -14 -9 -61 -15 -105 -18 -122
-66 -377 -95 -500 -14 -60 -32 -143 -41 -184 -26 -125 -79 -271 -137 -376 -30
-54 -59 -101 -64 -102 -24 -8 -499 521 -640 712 -43 58 -130 153 -97 105 40
-58 197 -258 293 -375 138 -167 149 -181 135 -172 -7 4 -9 -2 -6 -19 5 -25 58
-68 73 -58 4 2 30 -24 58 -59 53 -67 128 -141 151 -149 31 -10 -68 -104 -217
-207 -39 -27 -116 -51 -163 -51 -60 0 -135 42 -177 101 -20 28 -39 47 -40 42
-2 -6 11 -44 30 -84 37 -81 100 -148 159 -166 l33 -11 -45 -2 c-41 -2 -42 -3
-15 -9 l30 -7 -37 -5 c-22 -3 -34 -1 -31 5 4 5 -4 7 -18 3 -13 -4 -30 -7 -36
-7 -26 0 -12 -19 23 -30 21 -7 56 -10 87 -6 37 5 66 2 97 -9 57 -21 162 -12
201 16 15 10 32 19 38 19 11 0 31 15 102 78 42 37 49 39 49 13 0 -37 -253
-222 -670 -490 -205 -132 -243 -159 -545 -391 -115 -88 -221 -168 -235 -178
-48 -31 -415 -327 -530 -426 -181 -155 -395 -372 -603 -610 -106 -120 -207
-239 -226 -265 -122 -165 -147 -195 -179 -208 -54 -23 -61 -11 -93 160 -68
369 -71 680 -9 973 104 490 253 932 433 1276 58 112 62 117 79 101 12 -11 18
-12 18 -4 0 8 11 5 29 -8 39 -28 50 -27 22 2 -12 13 -23 33 -25 44 -4 16 0 19
25 15 l30 -4 -30 33 c-30 32 -38 49 -25 49 4 0 12 -7 18 -16 9 -12 17 -13 39
-5 35 14 35 31 -1 31 -16 0 -37 6 -47 14 -17 13 -18 18 -6 86 10 55 38 122
116 285 57 118 115 231 130 252 l27 38 -7 -85 c-4 -47 -11 -105 -15 -130 -5
-25 -6 -47 -4 -49 12 -12 19 21 30 131 20 194 26 209 105 289 38 37 70 76 71
86 0 10 2 29 3 43 5 57 28 126 56 168 38 56 30 66 -15 19 -32 -34 -48 -63 -92
-167 -10 -24 -59 -99 -108 -165 -51 -69 -108 -161 -134 -215 -100 -212 -113
-237 -151 -280 -38 -42 -40 -43 -40 -20 0 14 11 52 25 85 14 33 32 81 40 107
34 111 195 468 322 716 105 204 101 199 317 348 104 71 159 112 229 168 23 19
77 59 121 91 l80 57 7 -38 c4 -22 12 -68 18 -103 14 -81 50 -152 95 -186 54
-42 62 -136 12 -149 -47 -11 -124 -84 -167 -158 -60 -101 -88 -137 -211 -264
-65 -67 -111 -123 -115 -140 -4 -16 -19 -51 -35 -79 -27 -50 -67 -143 -194
-455 -96 -234 -120 -309 -145 -440 -12 -63 -23 -124 -26 -135 -2 -11 -6 -33
-10 -50 -19 -98 -78 -314 -108 -399 -20 -55 -36 -102 -36 -104 0 -3 -2 -3 -5
-1 -2 3 0 21 5 40 21 71 80 332 77 336 -2 2 -9 -16 -15 -39 -40 -154 -66 -260
-74 -303 -5 -27 -20 -71 -33 -97 -26 -54 -23 -59 14 -24 39 35 264 202 379
279 73 50 138 107 234 206 112 116 147 161 223 282 94 151 205 359 205 384 0
19 26 19 78 1 36 -13 83 -20 123 -17 9 1 58 37 109 81 110 96 113 98 182 108
44 6 54 11 56 29 2 12 -2 32 -9 45 -7 13 -14 28 -15 33 -1 6 -21 50 -44 100
-23 49 -44 104 -47 121 -3 18 5 70 17 118 21 80 22 88 8 128 -29 82 -11 122
71 159 25 11 53 27 62 35 10 9 32 23 49 32 23 13 329 196 570 342 138 84 197
123 260 170 41 31 101 76 133 99 31 24 58 49 59 55 8 51 7 -124 -2 -214z
m-1984 165 c-3 -8 -1 -15 4 -15 18 0 10 -28 -9 -33 -15 -3 -18 0 -14 17 8 36
12 46 19 46 3 0 4 -7 0 -15z m2571 -67 c-3 -8 -6 -5 -6 6 -1 11 2 17 5 13 3
-3 4 -12 1 -19z m19 -72 c-2 -6 -5 -3 -5 7 -1 10 -5 16 -10 13 -8 -5 -8 9 -1
34 1 3 6 -6 11 -19 5 -13 8 -29 5 -35z m497 -281 c24 -50 54 -113 67 -140 12
-28 32 -70 45 -95 47 -94 85 -220 91 -308 4 -48 3 -84 -1 -80 -13 12 -184 423
-210 503 -7 22 -22 69 -33 105 -23 71 -62 223 -61 237 0 4 13 -23 29 -62 15
-38 48 -111 73 -160z m-550 68 c41 -82 77 -161 80 -178 3 -16 17 -56 31 -88
14 -31 26 -59 26 -62 0 -3 10 -26 21 -52 37 -86 35 -93 -25 -140 -30 -24 -57
-43 -59 -43 -8 0 -40 60 -79 145 -43 96 -58 183 -64 370 -2 77 -6 152 -9 168
-2 15 -3 27 -1 27 2 0 38 -66 79 -147z m-2783 103 c0 -3 -4 -8 -10 -11 -5 -3
-10 -1 -10 4 0 6 5 11 10 11 6 0 10 -2 10 -4z m739 -129 c1 -10 -3 -15 -9 -12
-5 3 -10 21 -9 38 0 27 2 29 9 12 5 -11 9 -28 9 -38z m2191 8 c0 -5 -5 -3 -10
5 -5 8 -10 20 -10 25 0 6 5 3 10 -5 5 -8 10 -19 10 -25z m-2225 5 c3 -11 3
-30 -1 -42 l-8 -23 -7 25 c-10 37 -10 60 0 60 5 0 13 -9 16 -20z m2954 -65 c0
-11 -25 20 -41 50 -5 11 2 7 16 -10 14 -16 25 -34 25 -40z m-4263 -45 c55 -27
119 -21 163 15 15 14 32 21 36 17 5 -4 5 -2 1 5 -3 6 -1 15 5 19 8 5 10 -4 6
-32 -3 -22 -8 -57 -11 -79 -6 -51 -23 -98 -35 -91 -4 3 -6 -5 -4 -17 5 -34
-20 -59 -52 -51 -35 9 -139 106 -170 158 -58 100 -69 193 -13 117 16 -22 49
-49 74 -61z m4223 53 c12 -24 19 -43 16 -43 -5 0 -45 75 -45 86 0 11 6 2 29
-43z m-699 -155 c6 -10 10 -23 10 -30 0 -7 -5 -5 -11 5 -15 26 -69 188 -69
206 0 9 14 -24 30 -74 17 -49 35 -98 40 -107z m30 157 c0 -5 -5 -3 -10 5 -5 8
-10 20 -10 25 0 6 5 3 10 -5 5 -8 10 -19 10 -25z m-723 -22 c-3 -10 -5 -4 -5
12 0 17 2 24 5 18 2 -7 2 -21 0 -30z m-1437 -14 c0 -9 -39 1 -46 12 -3 5 -2
14 1 20 7 10 45 -16 45 -32z m2180 -14 c0 -5 -5 -3 -10 5 -5 8 -10 20 -10 25
0 6 5 3 10 -5 5 -8 10 -19 10 -25z m-2260 1 c-12 -31 -5 -36 30 -23 24 9 33 8
51 -8 14 -13 19 -14 14 -5 -5 9 -5 12 1 7 10 -9 11 -16 20 -124 5 -63 4 -76
-16 -108 -39 -63 -98 -66 -133 -6 -20 35 -24 79 -13 169 6 51 14 80 30 97 26
31 28 31 16 1z m2910 -6 c0 -15 80 -183 85 -178 3 2 -4 28 -15 58 -28 77 -10
52 58 -80 108 -210 238 -394 328 -463 50 -39 71 -77 42 -77 -28 0 -118 62
-177 121 -92 94 -173 223 -226 364 -13 33 -40 98 -60 145 -53 121 -57 132 -45
125 6 -3 10 -10 10 -15z m182 -100 c8 0 134 -84 148 -100 3 -3 14 -7 25 -8 10
-2 44 -17 75 -33 39 -20 46 -27 25 -22 -16 3 -31 10 -33 14 -2 4 -10 5 -19 2
-12 -5 -14 -3 -8 7 6 10 4 12 -10 7 -41 -16 -255 136 -292 207 -12 24 -5 19
31 -21 27 -29 52 -53 58 -53z m-802 36 c0 -12 -5 -7 -19 24 -11 24 -11 24 3 6
9 -11 16 -24 16 -30z m-775 -121 c6 -130 28 -322 51 -434 4 -21 3 -32 -2 -28
-6 3 -11 -11 -12 -31 -5 -74 -33 -219 -62 -312 -61 -203 -60 -226 13 -315 37
-45 26 -41 -25 8 -24 23 -38 22 -38 -3 0 -11 4 -20 10 -20 5 0 7 7 4 15 -5 11
-2 13 10 9 22 -8 20 -17 -9 -44 -19 -18 -22 -26 -13 -33 10 -6 9 -7 -2 -4 -19
5 -20 30 -1 38 12 4 11 7 -3 12 -12 5 -19 0 -25 -14 -7 -20 -9 -19 -38 17 -16
22 -33 56 -37 77 -4 20 -11 37 -17 37 -6 0 -7 5 -3 12 4 7 3 8 -5 4 -6 -4 -9
-11 -6 -16 6 -9 -59 -88 -103 -125 -21 -17 -29 -20 -29 -9 0 7 2 12 5 10 2 -2
12 3 22 12 15 12 17 20 9 34 -8 16 -13 17 -25 7 -12 -10 -13 -9 -8 5 9 23 33
20 43 -6 5 -13 10 -17 14 -11 9 14 -19 43 -39 43 -7 0 -19 -9 -26 -20 -7 -11
-17 -20 -22 -20 -6 0 -5 5 2 12 14 14 16 48 2 48 -5 0 -7 -7 -4 -15 4 -9 0
-15 -10 -15 -9 0 -16 -5 -16 -11 0 -5 -5 -7 -10 -4 -6 4 -7 12 -4 18 5 9 3 9
-6 0 -11 -10 -11 -15 0 -28 13 -16 13 -16 -28 -19 -7 -1 -24 -15 -38 -31 l-26
-30 25 35 c16 23 32 34 44 32 14 -3 15 -1 6 8 -9 10 -6 21 14 51 14 21 30 36
36 32 6 -3 7 -1 3 6 -4 6 -3 17 2 24 18 22 111 188 118 210 3 12 16 38 29 57
27 40 72 190 110 365 15 66 35 156 45 200 11 44 29 133 41 198 12 64 23 116
25 114 2 -2 6 -70 9 -152z m789 89 c3 -8 2 -12 -4 -9 -6 3 -10 10 -10 16 0 14
7 11 14 -7z m-3534 -140 c24 -12 54 -17 98 -16 l62 2 -16 -33 c-23 -46 -44
-67 -66 -67 -48 0 -148 76 -133 101 5 7 4 10 -2 6 -12 -7 -65 69 -83 118 -9
25 -2 20 47 -31 32 -34 74 -70 93 -80z m-145 66 c9 -16 13 -30 11 -30 -3 0
-12 14 -21 30 -9 17 -13 30 -11 30 3 0 12 -13 21 -30z m3615 -15 c0 -5 -5 -3
-10 5 -5 8 -10 20 -10 25 0 6 5 3 10 -5 5 -8 10 -19 10 -25z m98 10 c-3 -3 -9
2 -12 12 -6 14 -5 15 5 6 7 -7 10 -15 7 -18z m-62 -70 c14 -22 19 -33 10 -25
-10 7 -24 27 -33 44 -19 38 -12 32 23 -19z m-3616 15 c6 -11 8 -20 6 -20 -3 0
-10 9 -16 20 -6 11 -8 20 -6 20 3 0 10 -9 16 -20z m4026 -107 c-3 -8 -2 -12 2
-9 4 2 16 -17 26 -42 10 -26 24 -60 31 -77 8 -16 22 -52 33 -80 11 -27 45
-106 76 -175 33 -73 47 -115 35 -100 -11 14 -19 21 -16 15 3 -5 -1 -16 -9 -23
-13 -12 -18 -8 -15 11 2 12 -37 -11 -42 -25 -4 -9 -6 -8 -6 2 -1 8 -13 42 -27
75 -14 33 -39 121 -54 195 -16 74 -36 161 -43 193 -10 38 -11 57 -4 57 6 0 4
6 -5 13 -9 6 -18 30 -22 52 l-5 40 25 -54 c14 -30 23 -60 20 -68z m-259 -5
c-2 -13 -4 -5 -4 17 -1 22 1 32 4 23 2 -10 2 -28 0 -40z m-82 2 c10 -11 16
-20 13 -20 -3 0 -13 9 -23 20 -10 11 -16 20 -13 20 3 0 13 -9 23 -20z m-3485
-61 c-11 -38 -48 -109 -101 -197 -22 -35 -39 -67 -39 -71 0 -3 -48 -63 -108
-133 -152 -180 -174 -219 -180 -321 l-5 -82 -70 -105 c-81 -122 -97 -156 -97
-206 l0 -37 -25 23 c-24 23 -25 27 -21 129 5 118 24 185 95 331 38 77 40 85
23 88 -10 2 -47 -10 -83 -26 -91 -41 -97 -43 -164 -47 -41 -2 -50 -1 -30 4 47
12 143 70 189 115 56 54 94 86 104 86 4 0 99 94 213 208 165 167 283 272 305
272 1 0 -1 -14 -6 -31z m3400 -13 c0 -7 -19 -28 -41 -46 -39 -31 -43 -32 -55
-15 -12 16 -8 21 33 51 46 32 63 35 63 10z m-276 -172 c3 -8 2 -12 -4 -9 -6 3
-10 10 -10 16 0 14 7 11 14 -7z m39 -74 l28 -40 -33 -20 c-18 -11 -37 -20 -42
-20 -5 0 -6 21 -2 46 3 26 6 53 6 60 0 24 14 15 43 -26z m-3309 -91 c-20 -46
-44 -103 -54 -126 -29 -63 -62 -237 -64 -338 -2 -81 0 -96 26 -147 32 -66 29
-88 -14 -88 -71 0 -153 162 -157 311 -2 86 17 135 92 227 23 29 78 97 122 151
44 55 81 98 82 97 2 -2 -13 -40 -33 -87z m2876 56 c0 -5 -5 -3 -10 5 -5 8 -10
20 -10 25 0 6 5 3 10 -5 5 -8 10 -19 10 -25z m791 -32 c13 -16 12 -17 -3 -4
-10 7 -18 15 -18 17 0 8 8 3 21 -13z m319 -5 c0 -19 -2 -20 -10 -8 -13 19 -13
30 0 30 6 0 10 -10 10 -22z m811 -16 c-7 -2 -18 1 -23 6 -8 8 -4 9 13 5 13 -4
18 -8 10 -11z m-1871 -35 c0 -4 -7 -2 -15 7 -8 8 -15 21 -15 28 1 14 30 -20
30 -35z m773 8 c-7 -21 -12 -19 -10 4 0 11 5 18 9 15 4 -3 5 -11 1 -19z m-68
-10 c22 -14 36 -25 32 -25 -11 0 -87 39 -87 45 0 10 16 4 55 -20z m-125 -21
c0 -2 -9 0 -20 6 -11 6 -20 13 -20 16 0 2 9 0 20 -6 11 -6 20 -13 20 -16z
m-575 -31 c-16 -38 -34 -63 -20 -28 4 11 10 30 12 43 3 12 9 22 14 22 5 0 2
-17 -6 -37z m790 27 c-3 -5 -16 -10 -28 -9 -20 1 -20 2 3 9 14 4 26 8 28 9 2
1 0 -3 -3 -9z m-756 -84 c-6 -36 -30 -66 -51 -66 -4 0 3 25 17 56 14 31 25 64
26 73 0 12 2 12 8 -3 4 -11 4 -38 0 -60z m1232 20 c10 -21 10 -21 -6 -1 -9 11
-20 19 -24 18 -4 -1 -8 5 -8 12 0 19 24 1 38 -29z m-2006 -7 c11 -16 1 -19
-13 -3 -7 8 -8 14 -3 14 5 0 13 -5 16 -11z m1968 -64 c4 -31 3 -41 -2 -25 -14
46 -22 95 -12 85 5 -6 11 -32 14 -60z m-1262 32 c-10 -9 -11 -8 -5 6 3 10 9
15 12 12 3 -3 0 -11 -7 -18z m1097 -30 l22 -38 -31 18 c-17 10 -38 27 -47 38
-17 20 -17 20 4 3 28 -24 37 -23 28 5 -8 27 -4 22 24 -26z m129 1 c-3 -7 -5
-2 -5 12 0 14 2 19 5 13 2 -7 2 -19 0 -25z m229 -20 l19 -21 -27 18 c-29 18
-34 25 -20 25 5 0 17 -10 28 -22z m150 -76 c-6 -5 -90 30 -106 45 -8 7 13 1
47 -14 34 -15 61 -29 59 -31z m41 -8 c-3 -3 -12 -4 -19 -1 -8 3 -5 6 6 6 11 1
17 -2 13 -5z m76 -11 c-7 -2 -21 -2 -30 0 -10 3 -4 5 12 5 17 0 24 -2 18 -5z
m-4918 -220 l-28 -28 23 33 c12 18 24 31 27 28 3 -2 -7 -17 -22 -33z m2655 33
c0 -2 -8 -10 -17 -17 -16 -13 -17 -12 -4 4 13 16 21 21 21 13z m244 -20 c-3
-8 -13 -17 -22 -21 -13 -5 -13 -2 3 15 21 24 26 25 19 6z m-2867 -28 c-3 -8
-6 -5 -6 6 -1 11 2 17 5 13 3 -3 4 -12 1 -19z m2827 -19 c-3 -6 -1 -15 6 -19
9 -5 9 -17 1 -46 -6 -22 -11 -67 -11 -102 l0 -63 -21 20 c-12 11 -19 25 -16
33 4 9 6 7 6 -4 1 -10 5 -18 10 -18 4 0 8 26 8 57 0 46 -5 61 -21 74 -12 10
-18 21 -13 25 4 4 14 -1 23 -12 14 -18 15 -18 4 4 -9 19 -8 27 6 43 19 21 29
25 18 8z m-200 -17 c3 -5 -1 -9 -9 -9 -8 0 -12 4 -9 9 3 4 7 8 9 8 2 0 6 -4 9
-8z m-383 -52 c30 -11 45 -19 34 -19 -27 -1 -100 33 -111 50 -6 12 -5 12 8 1
9 -7 40 -21 69 -32z m454 -20 c-16 -16 -32 -30 -36 -30 -11 0 44 57 55 59 6 0
-3 -12 -19 -29z m83 10 c10 -17 10 -20 -4 -20 -8 0 -12 -4 -9 -10 3 -5 2 -10
-4 -10 -5 0 -9 14 -9 30 1 35 8 38 26 10z m-408 6 c0 -2 -7 -7 -16 -10 -8 -3
-12 -2 -9 4 6 10 25 14 25 6z m-43 -12 c-3 -3 -12 -4 -19 -1 -8 3 -5 6 6 6 11
1 17 -2 13 -5z m-83 -39 c11 -8 16 -15 10 -15 -5 0 -18 7 -28 15 -11 8 -16 15
-10 15 5 0 18 -7 28 -15z m548 -10 c-2 -14 -6 -25 -8 -25 -2 0 -4 11 -4 25 0
14 4 25 9 25 4 0 6 -11 3 -25z m-287 -85 c-27 -12 -43 -12 -25 0 8 5 22 9 30
9 10 0 8 -3 -5 -9z"/>
<path d="M6758 13913 c12 -2 32 -2 45 0 12 2 2 4 -23 4 -25 0 -35 -2 -22 -4z"/>
<path d="M6895 13899 c22 -5 47 -10 55 -10 31 -2 208 -49 268 -72 59 -22 71
-37 30 -37 -10 0 -29 -7 -42 -15 -21 -14 -24 -14 -36 0 -16 19 -30 19 -30 -1
0 -8 4 -13 9 -10 5 4 11 1 13 -6 3 -9 15 -8 45 6 25 11 50 15 64 11 16 -4 20
-3 11 3 -26 17 15 22 59 7 48 -17 79 -19 79 -5 0 6 -10 10 -21 10 -26 0 -131
30 -246 70 -86 30 -227 61 -272 59 -20 -1 -17 -3 14 -10z"/>
<path d="M7690 13906 c0 -5 7 -17 16 -27 15 -17 13 -18 -26 -29 -31 -8 -45 -8
-56 1 -10 8 -14 8 -14 0 0 -6 -7 -11 -16 -11 -9 0 -27 -9 -41 -20 -14 -11 -32
-20 -40 -20 -8 0 -12 -4 -9 -9 6 -10 29 -8 86 8 31 8 32 9 10 11 -15 1 2 8 40
17 77 17 47 16 302 9 174 -5 214 -9 260 -26 62 -23 61 -23 53 -10 -4 6 -24 18
-45 26 -22 9 -41 23 -43 32 -4 16 -5 16 -6 1 -1 -15 -13 -16 -103 -11 -57 4
-154 6 -216 4 -63 -1 -112 1 -109 5 2 4 -6 19 -19 33 -13 13 -24 21 -24 16z"/>
<path d="M6880 13865 c0 -13 4 -14 23 -4 33 17 33 19 4 19 -18 0 -27 -5 -27
-15z"/>
<path d="M6846 13762 c-16 -4 -31 -13 -34 -21 -3 -8 0 -11 7 -7 14 9 186 9
254 0 35 -5 48 -4 43 4 -10 17 -220 35 -270 24z"/>
<path d="M6245 13739 c-16 -5 -46 -10 -65 -13 -107 -12 -308 -102 -467 -208
-279 -187 -591 -587 -785 -1008 -44 -95 -149 -362 -145 -367 3 -2 15 22 28 54
110 276 252 555 370 728 102 150 269 354 351 429 40 37 74 62 76 56 2 -5 9
-10 14 -10 6 0 9 3 5 6 -9 10 44 64 103 103 170 115 431 212 580 215 58 1 73
-3 133 -37 73 -40 87 -30 21 15 -60 42 -152 57 -219 37z"/>
<path d="M6738 13723 c6 -2 18 -2 25 0 6 3 1 5 -13 5 -14 0 -19 -2 -12 -5z"/>
<path d="M7420 13609 c-42 -6 -41 -6 20 -8 115 -3 330 -60 448 -120 146 -74
330 -247 597 -560 344 -402 483 -616 643 -983 12 -27 23 -48 26 -48 21 0 -162
373 -248 508 -208 325 -657 841 -873 1005 -34 26 -94 65 -135 86 -130 70 -381
133 -478 120z"/>
<path d="M5855 13480 c-49 -5 -89 -16 -135 -39 -80 -41 -173 -109 -165 -122 4
-5 3 -9 -2 -9 -10 -1 -83 -66 -83 -75 0 -4 21 12 48 35 26 23 46 46 45 50 -3
10 84 68 155 104 124 63 415 55 569 -15 58 -27 78 -23 22 4 -73 36 -109 46
-215 62 -104 16 -126 16 -239 5z"/>
<path d="M5857 13371 c-175 -139 -462 -515 -619 -811 -51 -98 -113 -248 -105
-256 3 -3 8 5 12 18 21 64 157 328 167 322 7 -5 9 -1 5 9 -3 9 -2 19 3 22 5 3
26 36 46 73 123 223 423 581 547 652 29 16 44 30 35 30 -9 0 -50 -26 -91 -59z"/>
<path d="M6705 13300 c-3 -5 -1 -10 4 -10 6 0 11 5 11 10 0 6 -2 10 -4 10 -3
0 -8 -4 -11 -10z"/>
<path d="M6929 13188 c7 -10 23 -20 34 -24 12 -3 41 -25 65 -47 23 -23 42 -36
42 -30 0 17 -88 93 -108 93 -10 0 -24 6 -32 13 -12 10 -12 9 -1 -5z"/>
<path d="M6000 13187 c0 -1 -4 -17 -9 -35 -13 -43 1 -41 15 3 6 19 7 35 3 35
-5 0 -9 -1 -9 -3z"/>
<path d="M5826 13132 c-2 -4 10 -9 27 -10 17 -2 36 -7 41 -12 6 -6 17 -10 25
-10 11 0 10 4 -4 20 -18 20 -79 28 -89 12z"/>
<path d="M9051 12934 c170 -176 253 -291 378 -524 112 -208 121 -201 13 10
-105 207 -295 456 -433 569 -41 33 -31 20 42 -55z"/>
<path d="M5824 12994 c-27 -14 -61 -34 -75 -45 -33 -23 -46 -25 -29 -4 7 9 10
18 7 21 -3 3 -12 -5 -20 -18 -24 -36 -87 -195 -86 -215 0 -10 13 14 28 52 15
39 35 82 45 97 18 27 132 101 176 113 22 6 21 3 -16 -36 -78 -83 -156 -219
-249 -435 -10 -22 -19 -34 -22 -28 -3 10 22 124 43 197 3 9 1 17 -4 17 -8 0
-47 -155 -62 -247 -6 -35 -4 -41 7 -32 19 16 17 -2 -7 -86 -23 -79 -57 -216
-65 -267 -3 -18 -14 -78 -25 -133 -42 -214 -72 -537 -51 -549 7 -5 11 13 11
56 1 144 15 275 45 433 8 39 23 122 35 185 29 154 93 395 131 489 63 157 176
347 248 415 17 17 31 33 31 38 0 16 -48 7 -96 -18z"/>
<path d="M6530 12986 c0 -2 25 -23 55 -46 39 -30 55 -49 55 -66 0 -13 5 -24
10 -24 18 0 11 49 -10 70 -31 31 -110 79 -110 66z"/>
<path d="M6516 12841 c-10 -11 -16 -28 -13 -38 4 -16 5 -15 6 3 1 22 19 44 36
44 11 0 75 -78 75 -92 0 -4 -7 -5 -14 -2 -26 10 -126 -25 -127 -44 -1 -9 -3
-24 -3 -32 -14 -137 -18 -289 -20 -725 -1 -287 -6 -527 -11 -534 -4 -8 -9 -41
-11 -73 -2 -33 -8 -84 -13 -114 -6 -30 -16 -79 -22 -109 -6 -30 -13 -55 -17
-55 -12 0 -14 478 -2 640 6 85 12 189 15 230 l4 75 -13 -95 c-8 -52 -17 -138
-21 -190 -4 -52 -11 -138 -15 -190 -4 -52 -6 -98 -3 -103 7 -12 -8 -48 -18
-42 -5 4 -9 1 -9 -4 0 -6 4 -11 8 -11 20 0 -16 -232 -54 -350 -40 -121 -105
-262 -143 -310 -24 -29 -27 -12 -6 30 20 39 70 220 89 321 22 123 34 242 46
444 17 319 20 384 23 740 2 193 3 303 1 245 -2 -58 -8 -172 -14 -255 -6 -82
-13 -262 -15 -400 -2 -137 -9 -310 -14 -384 -11 -141 -18 -160 -84 -221 -19
-18 -19 -20 -3 -20 10 0 31 14 47 31 l29 31 -6 -49 c-12 -97 -76 -366 -109
-460 -19 -53 -32 -100 -29 -104 16 -27 88 72 149 206 36 79 98 300 115 405 7
45 8 30 8 -78 -1 -73 -4 -149 -8 -170 -5 -35 1 -70 23 -118 5 -12 6 -31 2 -43
-8 -25 9 -51 34 -51 9 0 49 16 89 35 l72 34 -30 -59 c-17 -33 -26 -60 -21 -60
5 0 11 4 13 8 6 15 78 64 78 54 0 -6 -4 -22 -9 -35 -19 -48 3 -37 28 15 23 47
34 57 96 90 39 21 94 45 123 55 55 18 61 16 75 -22 3 -6 17 -3 35 8 33 19 87
23 97 6 20 -32 -45 -99 -82 -85 -13 5 -13 2 2 -21 26 -41 67 -83 81 -83 7 0
20 -8 29 -17 14 -13 21 -14 36 -5 10 7 27 12 36 12 10 0 32 12 48 26 17 14 24
22 17 19 -7 -4 -38 -10 -68 -14 l-54 -8 0 32 c0 53 18 67 87 66 40 0 73 6 97
18 48 25 49 3 1 -40 -19 -18 -33 -34 -31 -36 2 -2 15 7 29 21 15 14 33 26 41
26 9 0 22 13 31 30 11 21 25 31 50 36 19 3 35 11 35 16 0 6 -11 7 -26 4 l-25
-7 22 31 c20 26 27 29 56 24 20 -4 33 -2 33 4 0 6 -14 10 -30 10 -37 -1 -44 5
-36 30 6 19 63 42 105 42 11 0 21 5 21 11 0 8 -18 10 -55 6 -53 -5 -55 -4 -49
16 17 58 34 72 122 98 23 7 42 16 42 21 0 10 -7 10 -28 -1 -9 -4 -34 -11 -55
-15 -53 -10 -41 6 36 44 70 36 89 50 65 50 -8 0 -36 -11 -60 -25 -25 -14 -71
-34 -104 -44 l-59 -20 36 32 c20 18 42 41 49 52 8 11 -4 3 -27 -18 -31 -29
-51 -40 -79 -42 -22 -1 -52 -9 -69 -18 -16 -9 -48 -19 -70 -22 l-40 -7 53 54
c28 29 52 58 52 63 0 5 -6 2 -12 -7 -11 -14 -50 -48 -126 -110 -12 -10 -54
-28 -94 -42 -232 -77 -359 -135 -508 -230 -122 -79 -170 -102 -180 -86 -16 26
-4 212 22 345 14 72 29 156 33 188 4 34 11 57 19 57 6 0 43 15 82 34 39 18
122 51 185 71 63 21 131 43 151 50 20 7 39 10 42 7 8 -7 7 -285 0 -360 -7 -68
-15 -75 -87 -75 -21 0 -33 -3 -27 -7 7 -4 -3 -10 -24 -14 -95 -18 -301 -153
-282 -185 4 -6 24 8 49 32 53 53 197 128 302 157 44 12 91 28 105 36 l25 14
-27 -6 c-33 -7 -33 -7 -13 40 8 19 20 59 26 88 6 29 16 62 22 73 6 11 11 25
12 30 12 156 19 197 31 202 9 3 11 11 5 21 -8 17 -15 230 -8 221 16 -16 39
-317 35 -452 -5 -159 -14 -197 -48 -197 -23 0 -35 -16 -17 -23 7 -2 30 -2 52
2 35 6 38 8 21 18 -18 10 -18 12 -2 34 9 13 16 34 16 47 0 12 6 33 14 45 17
27 52 170 61 250 5 46 10 57 25 57 10 0 25 2 33 6 10 4 22 -15 41 -68 28 -76
84 -178 98 -178 13 0 9 24 -7 47 -11 16 -55 181 -55 208 0 3 33 5 73 6 82 1
58 16 -29 18 -59 1 -50 -18 -85 176 -11 61 -22 119 -26 130 l-6 20 24 -20 23
-20 -22 36 c-25 41 -75 189 -68 197 3 3 9 -4 13 -14 3 -10 9 -21 13 -24 3 -3
23 -36 44 -75 21 -38 58 -95 82 -127 24 -31 44 -59 44 -62 0 -18 -39 -1 -73
32 -34 31 -37 33 -22 9 10 -15 31 -37 47 -48 16 -12 33 -32 38 -45 5 -13 16
-24 24 -24 23 0 28 17 6 23 -19 5 -30 47 -12 47 31 0 64 -86 39 -102 -7 -5 -1
-8 15 -8 15 0 30 -4 33 -10 3 -5 16 -15 28 -21 14 -8 6 5 -21 36 -23 26 -40
50 -37 53 2 3 -15 26 -39 53 -73 81 -206 297 -268 434 -14 31 -23 44 -26 33
-2 -9 4 -30 12 -46 8 -16 17 -41 20 -56 3 -15 16 -62 30 -104 35 -108 51 -179
76 -322 12 -69 30 -158 41 -199 21 -83 24 -110 10 -96 -14 15 -77 235 -106
370 -74 348 -98 443 -120 484 -20 36 -19 5 1 -50 87 -246 108 -581 54 -860
-30 -156 -39 -155 -40 6 0 105 -7 172 -25 270 -14 72 -34 184 -45 250 -11 66
-24 136 -30 155 -6 19 -17 67 -26 105 -33 156 -130 421 -160 438 -8 4 -14 13
-14 18 0 6 6 7 13 3 6 -4 1 5 -12 19 -14 15 -27 24 -30 21 -3 -3 2 -11 11 -18
10 -7 15 -15 12 -18 -3 -3 15 -46 39 -94 71 -142 149 -415 178 -624 13 -90 17
-338 8 -405 -4 -22 -10 -71 -14 -110 -4 -38 -11 -75 -16 -81 -8 -10 -17 -44
-18 -73 -1 -8 -4 -11 -8 -7 -4 4 -8 71 -8 149 -2 169 -15 364 -26 392 -4 11
-7 -42 -6 -119 l2 -139 -90 -24 c-114 -30 -302 -91 -337 -109 -15 -8 -29 -10
-32 -5 -3 5 -3 38 0 72 3 35 7 251 9 479 4 485 7 524 47 604 19 37 19 39 1 32
-12 -5 -9 2 11 23 19 20 25 31 15 31 -19 0 -33 -11 -47 -35 -9 -16 -11 -17
-12 -4 0 20 16 34 53 48 18 7 26 7 22 1 -3 -6 -1 -10 6 -10 8 0 7 -5 -3 -17
-18 -21 -29 -71 -17 -79 5 -3 18 0 29 6 16 8 30 8 56 0 30 -10 38 -9 54 5 37
34 80 -3 106 -90 38 -129 114 -526 114 -598 0 -20 5 -39 11 -43 27 -16 -41
397 -98 591 -30 105 -68 195 -82 195 -5 0 -7 8 -4 18 2 10 -2 24 -9 30 -11 9
-27 2 -72 -28 -63 -43 -100 -54 -75 -23 27 34 64 62 76 58 6 -2 14 3 17 12 7
17 -39 73 -60 73 -6 0 -17 7 -24 15 -17 21 -54 19 -74 -4z m140 -52 c9 -11 14
-22 10 -26 -7 -8 -58 27 -63 44 -6 17 33 4 53 -18z m47 -98 c-21 -22 -63 -45
-63 -34 0 15 44 53 62 53 18 0 18 -1 1 -19z m494 -813 c-3 -8 -6 -5 -6 6 -1
11 2 17 5 13 3 -3 4 -12 1 -19z m21 -120 c6 -29 14 -63 18 -75 5 -19 3 -21
-18 -16 -18 4 -20 3 -8 -6 8 -6 10 -11 4 -11 -21 0 -32 25 -30 65 2 22 3 52 4
68 3 44 18 31 30 -25z m-657 -279 c-83 -38 -115 -49 -95 -30 11 11 154 71 169
70 6 0 -28 -18 -74 -40z m834 -389 c-3 -4 0 -10 6 -12 7 -2 8 -17 3 -43 l-8
-40 -7 30 c-11 48 -10 87 1 80 6 -4 8 -10 5 -15z m-1015 -57 c0 -10 -5 -25
-10 -33 -7 -11 -10 -7 -10 18 0 17 5 32 10 32 6 0 10 -8 10 -17z"/>
<path d="M6490 12766 c0 -9 5 -16 10 -16 6 0 10 4 10 9 0 6 -4 13 -10 16 -5 3
-10 -1 -10 -9z"/>
<path d="M6930 12773 c0 -5 5 -14 11 -20 6 -6 30 -48 54 -94 53 -101 60 -98 9
4 -37 72 -74 128 -74 110z"/>
<path d="M5952 12680 c0 -19 2 -27 5 -17 2 9 2 25 0 35 -3 9 -5 1 -5 -18z"/>
<path d="M6281 12674 c0 -11 3 -14 6 -6 3 7 2 16 -1 19 -3 4 -6 -2 -5 -13z"/>
<path d="M9271 12598 c152 -274 244 -491 299 -708 12 -47 25 -89 30 -94 10
-10 10 -10 -20 114 -29 118 -66 229 -112 334 -43 97 -213 412 -229 421 -5 4 9
-27 32 -67z"/>
<path d="M6281 12634 c0 -11 3 -14 6 -6 3 7 2 16 -1 19 -3 4 -6 -2 -5 -13z"/>
<path d="M5257 12513 c-57 -144 -70 -184 -97 -293 -41 -166 -111 -519 -109
-554 0 -12 11 33 24 99 24 125 116 511 139 587 7 23 32 94 55 156 24 63 41
116 38 118 -2 2 -25 -49 -50 -113z"/>
<path d="M5922 12491 c-63 -355 -262 -868 -423 -1095 l-64 -89 -3 36 c-2 20
-8 37 -14 37 -7 0 -8 -16 -4 -44 l7 -44 -98 -97 -98 -98 90 79 c186 163 290
323 415 639 95 239 153 417 184 562 24 115 42 243 35 243 -2 0 -14 -58 -27
-129z"/>
<path d="M7040 12562 c0 -16 60 -165 71 -176 16 -17 10 2 -27 92 -37 90 -44
103 -44 84z"/>
<path d="M7201 12373 c78 -144 132 -227 264 -403 72 -96 143 -197 159 -223 15
-27 30 -46 33 -44 9 10 -31 74 -116 186 -157 207 -231 315 -302 439 -78 135
-105 167 -38 45z"/>
<path d="M9520 12241 c0 -6 4 -13 10 -16 6 -3 7 1 4 9 -7 18 -14 21 -14 7z"/>
<path d="M6231 11954 c0 -11 3 -14 6 -6 3 7 2 16 -1 19 -3 4 -6 -2 -5 -13z"/>
<path d="M5252 11875 c0 -16 2 -22 5 -12 2 9 2 23 0 30 -3 6 -5 -1 -5 -18z"/>
<path d="M4681 11854 c0 -11 3 -14 6 -6 3 7 2 16 -1 19 -3 4 -6 -2 -5 -13z"/>
<path d="M6167 11624 c-25 -126 -49 -236 -52 -244 -2 -8 -9 -31 -14 -50 -5
-19 -10 -28 -11 -20 -3 27 -18 -24 -18 -61 0 -72 -92 -378 -127 -425 -13 -17
-15 12 -16 226 -2 219 -3 234 -10 140 -5 -58 -6 -197 -3 -310 7 -224 18 -280
57 -280 19 0 20 1 3 13 -18 13 -35 72 -36 123 0 17 12 58 26 90 47 104 93 254
145 463 50 206 113 533 107 553 -2 6 -25 -92 -51 -218z"/>
<path d="M5237 11788 c-3 -29 -17 -132 -32 -228 -28 -185 -41 -482 -20 -477 6
1 10 53 11 127 1 125 23 357 50 525 7 49 10 93 5 98 -5 5 -11 -15 -14 -45z"/>
<path d="M4661 11784 c0 -11 3 -14 6 -6 3 7 2 16 -1 19 -3 4 -6 -2 -5 -13z"/>
<path d="M4651 11744 c0 -11 3 -14 6 -6 3 7 2 16 -1 19 -3 4 -6 -2 -5 -13z"/>
<path d="M4641 11704 c0 -11 3 -14 6 -6 3 7 2 16 -1 19 -3 4 -6 -2 -5 -13z"/>
<path d="M7899 11662 c14 -27 85 -84 201 -162 103 -69 146 -91 263 -137 99
-38 130 -40 40 -2 -193 80 -364 181 -461 272 -31 29 -50 42 -43 29z"/>
<path d="M5043 11600 c0 -25 2 -35 4 -22 2 12 2 32 0 45 -2 12 -4 2 -4 -23z"/>
<path d="M7875 11540 c16 -19 48 -55 70 -79 27 -29 33 -41 20 -36 -11 4 -31 9
-45 11 -18 3 -14 -1 15 -16 92 -45 90 -19 -8 76 -45 43 -68 63 -52 44z"/>
<path d="M4922 11410 c0 -14 2 -19 5 -12 2 6 2 18 0 25 -3 6 -5 1 -5 -13z"/>
<path d="M8367 11419 c7 -7 15 -10 18 -7 3 3 -2 9 -12 12 -14 6 -15 5 -6 -5z"/>
<path d="M9530 11428 c0 -11 69 -190 70 -181 0 14 -60 183 -66 183 -2 0 -4 -1
-4 -2z"/>
<path d="M7012 11370 c0 -14 2 -19 5 -12 2 6 2 18 0 25 -3 6 -5 1 -5 -13z"/>
<path d="M5922 11330 c0 -19 2 -27 5 -17 2 9 2 25 0 35 -3 9 -5 1 -5 -18z"/>
<path d="M8070 11326 c25 -13 85 -34 133 -46 73 -19 103 -22 170 -16 45 4 86
11 92 17 8 8 -54 5 -110 -6 -26 -6 -158 22 -220 47 -27 10 -63 21 -80 24 -27
4 -25 2 15 -20z"/>
<path d="M8484 11315 c11 -8 22 -12 25 -9 6 6 -19 24 -34 24 -5 -1 -1 -7 9
-15z"/>
<path d="M8328 11183 c7 -3 16 -2 19 1 4 3 -2 6 -13 5 -11 0 -14 -3 -6 -6z"/>
<path d="M8030 11096 c0 -22 35 -55 65 -60 19 -4 41 -16 49 -28 9 -12 29 -27
46 -34 29 -13 30 -13 19 9 -12 21 -12 21 15 4 20 -14 31 -15 46 -7 28 15 25
22 -5 14 -18 -5 -35 1 -59 20 -19 14 -44 26 -55 26 -30 0 -73 19 -98 42 -13
12 -23 18 -23 14z"/>
<path d="M5308 11043 c7 -3 16 -2 19 1 4 3 -2 6 -13 5 -11 0 -14 -3 -6 -6z"/>
<path d="M8080 11003 c0 -6 5 -15 10 -18 6 -3 10 -13 10 -22 0 -9 6 -24 14
-32 12 -13 12 -32 4 -106 -11 -93 -19 -120 -51 -167 -10 -16 -14 -28 -8 -28 6
0 11 5 11 11 0 6 7 8 16 5 11 -4 15 -2 11 6 -7 20 12 65 22 50 9 -15 58 94 66
148 5 34 5 34 -7 10 -14 -28 -48 -39 -48 -17 0 8 3 28 6 45 6 27 8 29 34 22
16 -5 31 -6 34 -2 14 13 4 22 -23 22 -22 0 -38 10 -65 43 -20 23 -36 37 -36
30z m80 -190 c-1 -5 -9 -26 -20 -48 -15 -30 -19 -35 -20 -18 0 12 5 25 10 28
6 4 8 11 5 16 -4 5 -3 14 0 19 7 12 25 13 25 3z"/>
<path d="M4851 10924 c0 -11 3 -14 6 -6 3 7 2 16 -1 19 -3 4 -6 -2 -5 -13z"/>
<path d="M4843 10795 c0 -27 2 -38 4 -22 2 15 2 37 0 50 -2 12 -4 0 -4 -28z"/>
<path d="M7034 10715 c-10 -8 -14 -15 -8 -15 6 0 17 7 24 15 16 19 9 19 -16 0z"/>
<path d="M9631 10707 c-1 -5 8 -65 18 -135 10 -70 24 -176 31 -237 37 -355 95
-739 115 -768 14 -20 15 -14 15 78 0 134 -13 274 -56 615 -42 339 -51 383 -50
243 1 -55 4 -99 8 -97 4 3 6 -13 4 -36 -2 -22 -1 -38 3 -35 4 2 9 -16 10 -42
0 -25 4 -50 8 -56 3 -5 1 -7 -5 -3 -6 3 -4 -7 4 -23 8 -16 15 -64 17 -110 1
-44 5 -81 8 -81 3 0 5 -19 5 -43 1 -24 3 -48 6 -53 9 -16 10 -104 1 -104 -5 0
-19 75 -32 168 -12 92 -24 178 -26 192 -2 14 -11 90 -20 170 -9 80 -18 150
-20 156 -2 6 2 17 8 23 8 8 8 11 0 11 -6 0 -14 23 -18 52 -7 47 -33 134 -34
115z"/>
<path d="M8040 10600 c0 -11 4 -20 9 -20 6 0 9 9 8 20 -1 11 -5 20 -9 20 -4 0
-8 -9 -8 -20z"/>
<path d="M8112 10600 c0 -14 2 -19 5 -12 2 6 2 18 0 25 -3 6 -5 1 -5 -13z"/>
<path d="M7890 10560 c0 -11 4 -20 8 -20 4 0 8 9 9 20 1 11 -2 20 -8 20 -5 0
-9 -9 -9 -20z"/>
<path d="M8068 10517 c-1 -31 0 -71 5 -91 4 -20 11 -53 15 -73 6 -30 9 -34 15
-20 4 10 1 30 -6 45 -8 15 -15 63 -16 107 -2 44 -4 81 -6 83 -2 2 -5 -21 -7
-51z"/>
<path d="M4783 10515 c0 -22 2 -30 4 -17 2 12 2 30 0 40 -3 9 -5 -1 -4 -23z"/>
<path d="M8112 10530 c0 -14 2 -19 5 -12 2 6 2 18 0 25 -3 6 -5 1 -5 -13z"/>
<path d="M7884 10399 c-5 -50 -6 -93 -2 -95 5 -3 8 -2 8 3 0 4 3 47 7 96 3 48
4 87 1 87 -2 0 -9 -41 -14 -91z"/>
<path d="M4793 10340 c0 -41 2 -58 4 -37 2 20 2 54 0 75 -2 20 -4 3 -4 -38z"/>
<path d="M8092 10290 c0 -14 2 -19 5 -12 2 6 2 18 0 25 -3 6 -5 1 -5 -13z"/>
<path d="M7877 10283 c-3 -5 -8 -33 -11 -63 -12 -107 -36 -236 -56 -298 -40
-128 -117 -256 -180 -298 -21 -15 -28 -24 -18 -24 34 0 109 89 158 189 56 112
83 222 114 464 5 36 2 45 -7 30z"/>
<path d="M6001 10260 c-2 -26 -76 -131 -160 -227 -75 -86 -80 -94 -70 -119 13
-36 89 -148 134 -198 59 -66 40 -26 -36 79 -20 28 -48 71 -63 96 l-26 46 76
53 c73 50 168 155 158 172 -3 5 -18 -8 -33 -29 -31 -43 -128 -133 -143 -133
-6 0 9 21 31 48 23 26 60 74 83 107 23 33 46 63 51 66 5 4 7 17 4 30 -2 13 -5
17 -6 9z m-171 -264 c0 -2 -8 -10 -17 -17 -16 -13 -17 -12 -4 4 13 16 21 21
21 13z"/>
<path d="M5730 10239 c0 -5 5 -7 10 -4 6 3 10 8 10 11 0 2 -4 4 -10 4 -5 0
-10 -5 -10 -11z"/>
<path d="M6001 10194 c0 -11 3 -14 6 -6 3 7 2 16 -1 19 -3 4 -6 -2 -5 -13z"/>
<path d="M5380 10091 c0 -6 4 -13 10 -16 6 -3 7 1 4 9 -7 18 -14 21 -14 7z"/>
<path d="M5480 9986 c0 -2 8 -10 18 -17 15 -13 16 -12 3 4 -13 16 -21 21 -21
13z"/>
<path d="M9540 9781 c0 -5 5 -13 10 -16 6 -3 10 -2 10 4 0 5 -4 13 -10 16 -5
3 -10 2 -10 -4z"/>
<path d="M6180 9360 c14 -4 41 -8 60 -8 28 -1 31 1 15 8 -11 5 -38 8 -60 8
-34 0 -36 -1 -15 -8z"/>
<path d="M9933 7355 c0 -8 4 -12 9 -9 5 3 6 10 3 15 -9 13 -12 11 -12 -6z"/>
<path d="M10549 7299 c-9 -17 -8 -20 2 -14 9 6 10 3 5 -11 -4 -10 -3 -15 1
-10 7 7 13 56 6 56 -1 0 -7 -10 -14 -21z"/>
<path d="M10065 7070 c3 -5 8 -10 11 -10 2 0 4 5 4 10 0 6 -5 10 -11 10 -5 0
-7 -4 -4 -10z"/>
<path d="M8565 13610 c3 -5 16 -15 28 -21 l22 -11 -22 21 c-23 22 -39 28 -28
11z"/>
<path d="M8145 11681 c37 -40 315 -231 315 -216 0 2 -48 37 -107 76 -60 40
-137 95 -173 122 -49 38 -58 43 -35 18z"/>
<path d="M5452 10985 c0 -16 2 -22 5 -12 2 9 2 23 0 30 -3 6 -5 -1 -5 -18z"/>
<path d="M5906 9273 c6 -4 14 -15 17 -23 5 -11 6 -9 4 4 -1 11 -9 21 -17 23
-10 3 -11 2 -4 -4z"/>
<path d="M5950 8079 c0 -11 4 -18 10 -14 5 3 7 12 3 20 -7 21 -13 19 -13 -6z"/>
<path d="M6180 7790 c-13 -8 -12 -10 3 -10 9 0 17 5 17 10 0 12 -1 12 -20 0z"/>
<path d="M6270 7708 c-12 -8 -12 -9 2 -5 9 3 19 1 22 -6 3 -9 5 -9 5 0 1 18
-13 23 -29 11z"/>
<path d="M7241 8831 c-9 -6 -7 -10 8 -14 12 -3 21 -1 21 3 0 14 -15 19 -29 11z"/>
<path d="M6770 8055 c0 -8 7 -15 15 -15 8 0 15 -5 15 -11 0 -6 9 -24 21 -40
11 -16 18 -29 14 -29 -5 0 41 -98 66 -140 30 -49 29 -60 -2 -123 -18 -34 -34
-64 -38 -67 -3 -3 -15 -22 -26 -43 -26 -51 -44 -65 -56 -46 -6 10 -9 10 -9 1
0 -7 -10 -16 -23 -21 -27 -11 -87 -59 -87 -71 0 -14 135 59 162 88 33 34 108
172 118 216 5 23 3 38 -7 52 -22 28 -93 176 -93 192 0 21 -39 72 -56 72 -8 0
-14 -7 -14 -15z"/>
<path d="M6646 7368 c-9 -94 -15 -263 -21 -563 -3 -148 -8 -282 -11 -297 -3
-17 -1 -28 5 -28 6 0 12 17 12 38 1 20 3 55 4 77 1 22 5 191 9 375 4 184 9
363 13 398 3 34 3 62 1 62 -3 0 -8 -28 -12 -62z"/>
<path d="M6531 7085 c-1 -5 -4 -21 -7 -35 -2 -14 -13 -67 -24 -117 -30 -137
-23 -145 11 -13 16 63 28 129 26 145 -2 17 -5 26 -6 20z"/>
<path d="M7920 6774 c-25 -19 -47 -41 -49 -47 -3 -10 28 15 94 74 24 23 -5 5
-45 -27z"/>
<path d="M6468 6775 c-3 -16 -23 -93 -43 -170 -21 -81 -41 -181 -45 -237 -11
-133 -17 -635 -7 -644 4 -4 8 105 9 242 2 307 -1 259 30 479 6 44 24 129 40
188 16 59 28 122 26 140 l-3 32 -7 -30z"/>
<path d="M6611 6454 c0 -11 3 -14 6 -6 3 7 2 16 -1 19 -3 4 -6 -2 -5 -13z"/>
<path d="M6566 6284 c-4 -14 -5 -28 -3 -31 3 -2 8 8 11 23 4 14 5 28 3 31 -3
2 -8 -8 -11 -23z"/>
<path d="M6495 8050 c-3 -5 1 -10 10 -10 9 0 13 5 10 10 -3 6 -8 10 -10 10 -2
0 -7 -4 -10 -10z"/>
<path d="M6470 8030 c0 -12 28 -21 35 -11 2 5 -4 11 -15 14 -11 3 -20 2 -20
-3z"/>
<path d="M8885 6792 c-6 -4 -11 -14 -13 -22 -3 -12 0 -12 14 2 18 18 17 33 -1
20z"/>
</g>
</svg>
